<svg xmlns="http://www.w3.org/2000/svg" xmlns:xlink="http://www.w3.org/1999/xlink" width="800" zoomAndPan="magnify" viewBox="0 0 600 599.999999" height="800" preserveAspectRatio="xMidYMid meet" version="1.0"><path fill="#000000" d="M 300 0 C 134.578125 0 0 134.578125 0 300 C 0 465.421875 134.578125 600 300 600 C 465.421875 600 600 465.421875 600 300 C 600 134.578125 465.421875 0 300 0 Z M 300 585.0625 C 142.816406 585.0625 14.9375 457.183594 14.9375 300 C 14.9375 142.816406 142.816406 14.9375 300 14.9375 C 457.183594 14.9375 585.0625 142.816406 585.0625 300 C 585.0625 457.183594 457.183594 585.0625 300 585.0625 Z M 540.398438 309.648438 C 536.988281 392.601562 492.085938 466.867188 420.285156 508.320312 C 382.941406 529.878906 341.539062 540.695312 300.0625 540.695312 C 261.796875 540.695312 223.457031 531.484375 188.164062 513 C 184.507812 511.082031 183.097656 506.578125 185.015625 502.917969 C 186.933594 499.257812 191.441406 497.851562 195.097656 499.769531 C 264.074219 535.90625 345.472656 534.261719 412.816406 495.375 C 480.160156 456.484375 522.285156 386.824219 525.472656 309.023438 C 525.648438 304.90625 529.171875 301.691406 533.242188 301.867188 C 537.359375 302.042969 540.558594 305.515625 540.398438 309.636719 Z M 187.195312 104.613281 C 119.851562 143.503906 77.726562 213.160156 74.539062 290.960938 C 74.378906 294.984375 71.066406 298.121094 67.082031 298.121094 C 66.984375 298.121094 66.871094 298.121094 66.773438 298.121094 C 62.652344 297.945312 59.453125 294.472656 59.613281 290.351562 C 63.023438 207.410156 107.925781 133.132812 179.726562 91.679688 C 251.527344 50.226562 338.304688 48.472656 411.847656 87 C 415.507812 88.917969 416.914062 93.421875 414.996094 97.082031 C 413.078125 100.742188 408.574219 102.148438 404.914062 100.230469 C 335.9375 64.09375 254.550781 65.738281 187.195312 104.625 Z M 224.128906 411.933594 C 225.324219 412.035156 226.507812 412.09375 227.703125 412.09375 C 239.976562 412.09375 252.25 406.570312 261.734375 396.945312 C 274.929688 413.640625 285.25 433.90625 292.90625 458.003906 C 293.902344 461.140625 296.8125 463.21875 300.011719 463.21875 C 300.410156 463.21875 300.820312 463.183594 301.230469 463.121094 C 304.890625 462.511719 307.554688 459.3125 307.480469 455.601562 C 306.671875 416.128906 311.652344 379.769531 322.308594 346.691406 C 332.75 352.257812 344.003906 355.09375 355.332031 355.09375 C 363.808594 355.09375 372.335938 353.515625 380.578125 350.289062 C 407.265625 339.882812 427.269531 314.390625 434.066406 282.113281 C 442.90625 240.148438 444.460938 190.855469 438.4375 143.316406 C 438.039062 140.203125 435.734375 137.664062 432.671875 136.96875 C 429.609375 136.28125 426.4375 137.578125 424.742188 140.214844 C 415.707031 154.28125 389.105469 166.617188 363.386719 178.554688 C 336.421875 191.066406 308.550781 203.988281 294.984375 221.226562 C 279.1875 241.28125 272.6875 263.425781 276.1875 285.25 C 279.460938 305.703125 291.4375 324.722656 309.324219 338.226562 C 300.808594 363.460938 295.507812 390.523438 293.441406 419.328125 C 287.128906 406.691406 279.820312 395.363281 271.507812 385.246094 C 277.929688 376.144531 280.28125 365.054688 278.089844 353.328125 C 275.027344 336.882812 263.265625 321.835938 248.128906 314.988281 C 237.449219 310.15625 223.019531 307.929688 209.078125 305.761719 C 193.28125 303.3125 176.9375 300.785156 170.339844 294.996094 C 167.976562 292.929688 164.578125 292.554688 161.8125 294.074219 C 159.0625 295.59375 157.554688 298.667969 158.027344 301.769531 C 162.210938 328.605469 168.335938 348.050781 181.445312 376.09375 C 191.527344 397.65625 206.675781 410.390625 224.105469 411.933594 Z M 290.949219 282.894531 C 288.125 265.292969 293.589844 247.171875 306.734375 230.476562 C 318.097656 216.050781 344.328125 203.875 369.683594 192.113281 C 391.046875 182.203125 411.523438 172.707031 425.363281 161.277344 C 429.011719 202.09375 426.972656 243.359375 419.464844 279.039062 C 413.703125 306.375 397.144531 327.808594 375.160156 336.375 C 359.128906 342.621094 342.347656 341.164062 327.347656 332.390625 C 340.058594 299.265625 358.804688 269.664062 383.527344 243.808594 C 386.378906 240.835938 386.277344 236.105469 383.289062 233.253906 C 380.304688 230.402344 375.585938 230.503906 372.734375 233.488281 C 347.476562 259.90625 328.121094 289.953125 314.761719 323.441406 C 301.929688 312.535156 293.402344 298.15625 290.949219 282.894531 Z M 175.480469 314.089844 C 184.542969 317.066406 195.484375 318.757812 206.8125 320.515625 C 219.773438 322.519531 233.164062 324.597656 241.992188 328.59375 C 252.820312 333.484375 261.238281 344.265625 263.425781 356.054688 C 264.324219 360.894531 264.421875 367.382812 261.113281 373.71875 C 251.304688 363.882812 240.285156 355.429688 228.023438 348.296875 C 224.464844 346.21875 219.882812 347.441406 217.816406 351 C 215.738281 354.558594 216.957031 359.140625 220.519531 361.207031 C 232.183594 367.992188 242.613281 376.121094 251.863281 385.65625 C 244.457031 393.574219 234.746094 397.867188 225.449219 397.046875 C 213.375 395.976562 202.84375 386.539062 195 369.757812 C 185.078125 348.523438 179.378906 332.527344 175.46875 314.089844 Z M 175.480469 314.089844 " fill-opacity="1" fill-rule="nonzero"/></svg>