<svg xmlns="http://www.w3.org/2000/svg" xmlns:xlink="http://www.w3.org/1999/xlink" width="800" zoomAndPan="magnify" viewBox="0 0 600 881.999991" height="1176" preserveAspectRatio="xMidYMid meet" version="1.0"><defs><clipPath id="b69edc1ce0"><path d="M 0 0 L 596.25 0 L 596.25 882 L 0 882 Z M 0 0 " clip-rule="nonzero"/></clipPath></defs><g clip-path="url(#b69edc1ce0)"><path fill="#04041c" d="M 540.703125 113.957031 C 481.464844 37.339844 400.851562 2.878906 322.863281 0.0117188 C 212.605469 -0.34375 123.59375 41.832031 64.746094 112.542969 C -11.097656 203.6875 -25.550781 345.316406 49.550781 450.453125 C 86.722656 502.480469 136.589844 537.019531 197.78125 555.125 C 204.597656 557.136719 207.148438 560.042969 205.992188 567.398438 C 202.007812 592.921875 198.488281 618.535156 195.101562 644.148438 C 194.28125 650.332031 192.195312 652.4375 185.546875 651.597656 C 164.261719 648.898438 142.882812 646.996094 121.542969 644.648438 C 99.292969 642.210938 85.046875 653.609375 82.550781 676.019531 C 81.695312 683.75 80.78125 691.480469 79.699219 699.191406 C 75.53125 728.664062 85.175781 741.441406 114.894531 745.632812 C 131.226562 747.941406 147.558594 750.179688 163.871094 752.523438 C 178.636719 754.648438 177.59375 752.339844 175.527344 768.527344 C 172.753906 790.453125 169.589844 812.359375 167.261719 834.339844 C 164.800781 857.550781 172.753906 868.707031 195.082031 874.742188 C 211.988281 879.324219 229.269531 881.5625 246.738281 881.96875 C 267.519531 882.453125 279.195312 871.949219 281.878906 851.289062 C 284.875 828.15625 288.285156 805.039062 290.722656 781.84375 C 291.636719 773.183594 294.671875 771.339844 303.050781 772.605469 C 325.488281 775.996094 348.003906 779.460938 370.777344 779.460938 C 389.046875 779.460938 399.230469 771.226562 403.382812 753.566406 C 406.8125 738.980469 408.320312 724.0625 409.046875 709.140625 C 409.996094 689.839844 399.921875 677.828125 380.832031 674.847656 C 358.394531 671.34375 335.898438 668.085938 313.367188 665.121094 C 307.128906 664.300781 305.082031 662.011719 305.65625 655.585938 C 307.875 630.773438 309.679688 605.941406 313.21875 581.257812 C 315.320312 566.5625 315.171875 567.027344 329.902344 564.625 C 425.132812 548.996094 503.046875 505.742188 554.929688 421.804688 C 614.59375 325.328125 609.488281 202.925781 540.703125 113.957031 Z M 351.09375 543.984375 C 342.769531 545.941406 334.371094 547.691406 325.878906 548.714844 C 319.660156 549.480469 307.78125 547.46875 303.238281 552.609375 C 300.816406 555.347656 299.921875 559.09375 299.417969 562.707031 C 294.875 595.398438 290.722656 628.722656 289.175781 661.75 C 288.601562 674.121094 290.144531 676.449219 302.101562 679.1875 C 324.277344 684.253906 346.847656 686.804688 369.417969 689.375 C 389.25 691.628906 394.726562 698.988281 391.894531 718.640625 C 390.515625 728.179688 389.808594 737.828125 388.339844 747.347656 C 386.585938 758.691406 380.648438 764.035156 369.121094 763.066406 C 347.109375 761.242188 325.15625 758.839844 303.238281 756.0625 C 283.105469 753.511719 279.585938 755.039062 276.160156 775.121094 C 272.4375 796.898438 269.960938 818.894531 267.351562 840.859375 C 264.820312 862.207031 258.859375 867.515625 237.6875 865.09375 C 225.339844 863.679688 213.03125 861.777344 200.835938 859.375 C 186.421875 856.542969 181.636719 850.003906 183.351562 835.699219 C 186.441406 810.066406 189.8125 784.453125 193.367188 758.875 C 195.398438 744.367188 192.828125 740.863281 178.265625 738.664062 C 155.511719 735.21875 132.753906 731.71875 110.089844 727.675781 C 97.464844 725.421875 93.945312 720.074219 95.324219 707.257812 C 96.40625 697.367188 97.894531 687.511719 99.292969 677.640625 C 101.132812 664.542969 107.074219 659.8125 120.277344 661.042969 C 142.585938 663.09375 164.859375 665.476562 187.167969 667.28125 C 204.300781 668.660156 206.550781 666.742188 209.269531 650.035156 C 213.984375 621.160156 218.46875 592.25 223.164062 563.375 C 225.808594 547.132812 224.746094 546.238281 208.339844 541.207031 C 110.742188 511.367188 44.152344 449.539062 22.792969 348.242188 C -0.316406 238.300781 36.554688 147.023438 124.019531 77.929688 C 181.449219 32.554688 248.636719 11.375 322.101562 17.242188 C 427.59375 25.660156 509.027344 73.664062 555.765625 171.070312 C 589.339844 241.019531 588.148438 313.015625 556.53125 383.5625 C 516.472656 472.902344 444.183594 522.058594 351.09375 543.984375 Z M 351.09375 543.984375 " fill-opacity="1" fill-rule="nonzero"/></g><path fill="#04041c" d="M 91.023438 294.613281 C 91.285156 155.105469 229.195312 53.359375 362.417969 94.4375 C 433.550781 116.359375 483.363281 178.859375 491.707031 252.902344 C 504.722656 368.472656 410.125 470.964844 303.050781 480.222656 C 227.019531 486.777344 165.101562 460.308594 120.652344 396.972656 C 99.179688 366.367188 90.835938 331.644531 91.023438 294.613281 Z M 106.964844 299.136719 C 107.316406 304 107.355469 311.84375 108.492188 319.519531 C 121.433594 407.238281 193.425781 460.328125 269.234375 464.425781 C 349.867188 468.785156 411.800781 433.335938 452.171875 363.925781 C 486.066406 305.640625 487.351562 244.128906 452.621094 186.085938 C 412.507812 119.082031 349.472656 94.902344 273.648438 104.382812 C 178.621094 116.285156 106.273438 200.523438 106.964844 299.136719 Z M 106.964844 299.136719 " fill-opacity="1" fill-rule="nonzero"/></svg>