<svg xmlns="http://www.w3.org/2000/svg" xmlns:xlink="http://www.w3.org/1999/xlink" width="800" zoomAndPan="magnify" viewBox="0 0 600 555.000006" height="740" preserveAspectRatio="xMidYMid meet" version="1.0"><defs><clipPath id="03a8d0fd4b"><path d="M 0.539062 0 L 597.964844 0 L 597.964844 554 L 0.539062 554 Z M 0.539062 0 " clip-rule="nonzero"/></clipPath></defs><g clip-path="url(#03a8d0fd4b)"><path fill="#262626" d="M 212.507812 16.855469 C 256.503906 -2.636719 303.703125 -5.617188 345.109375 9.980469 C 384.460938 24.804688 418.785156 56.402344 439.996094 107.199219 C 454.863281 102.746094 470.386719 96.292969 486.261719 88.835938 C 489.664062 87.238281 493.683594 87.78125 496.539062 90.226562 C 499.394531 92.671875 500.550781 96.558594 499.496094 100.167969 C 485.378906 148.480469 458.1875 195.167969 433.101562 227.808594 C 430.976562 230.574219 427.511719 231.960938 424.066406 231.425781 C 369.839844 223.03125 292.46875 187.996094 292.46875 187.996094 C 289.015625 186.429688 286.816406 182.972656 286.863281 179.179688 C 286.910156 175.386719 289.191406 171.984375 292.683594 170.5 C 308.304688 163.859375 321.40625 157.785156 331.941406 152.277344 C 327.324219 142.078125 317.96875 123.070312 304.285156 103.140625 C 270.160156 127.46875 244.089844 161.4375 221.292969 199.367188 C 219.851562 201.761719 217.4375 203.40625 214.679688 203.867188 C 211.921875 204.328125 209.105469 203.5625 206.960938 201.765625 C 173.878906 174.027344 140.128906 150.351562 105.542969 131.644531 C 103.261719 130.410156 101.582031 128.308594 100.882812 125.8125 C 100.1875 123.320312 100.53125 120.644531 101.839844 118.410156 C 129.953125 70.390625 169.726562 35.804688 212.511719 16.855469 Z M 314.335938 84.308594 C 339.570312 118.566406 353.050781 153.027344 353.050781 153.027344 C 354.789062 157.453125 353 162.484375 348.859375 164.828125 C 341.105469 169.21875 331.601562 174.003906 320.367188 179.167969 C 344.75 189.214844 386.957031 205.285156 421.398438 211.589844 C 440.722656 185.613281 460.929688 151.378906 474.441406 115.003906 C 461.46875 120.402344 448.804688 124.878906 436.613281 127.960938 C 431.894531 129.152344 427.035156 126.609375 425.328125 122.050781 C 406.753906 72.5625 375.246094 41.757812 338.371094 27.863281 C 309.648438 17.039062 277.804688 16.460938 246.609375 24.9375 C 274.179688 37.640625 297.023438 60.804688 314.339844 84.308594 Z M 217.652344 35.5 C 181.722656 52.050781 148.339844 80.695312 123.4375 119.710938 C 153.082031 136.5 182.144531 156.796875 210.707031 180.070312 C 233.492188 143.769531 259.695312 111.542969 292.917969 87.769531 C 273.84375 63.824219 248.652344 41.308594 217.652344 35.5 Z M 596.632812 344.222656 C 591.511719 392.070312 570.5 434.441406 536.289062 462.5 C 503.769531 489.171875 459.25 503.09375 404.652344 496.066406 C 401.074219 511.171875 398.902344 527.84375 397.417969 545.316406 C 397.101562 549.0625 394.621094 552.273438 391.078125 553.523438 C 387.535156 554.769531 383.589844 553.828125 380.992188 551.113281 C 346.210938 514.730469 319.375 467.839844 303.652344 429.792969 C 302.320312 426.566406 302.851562 422.875 305.039062 420.15625 C 339.421875 377.390625 408.445312 327.898438 408.445312 327.898438 C 411.527344 325.695312 415.621094 325.519531 418.882812 327.453125 C 422.140625 329.386719 423.949219 333.066406 423.488281 336.832031 C 421.429688 353.683594 420.136719 368.070312 419.640625 379.941406 C 430.78125 381.042969 451.917969 382.445312 476.019531 380.558594 C 472.015625 338.839844 455.632812 299.277344 434.1875 260.566406 C 432.832031 258.125 432.613281 255.207031 433.59375 252.589844 C 434.574219 249.972656 436.648438 247.914062 439.273438 246.957031 C 479.832031 232.175781 517.214844 214.785156 550.707031 194.183594 C 552.914062 192.824219 555.574219 192.421875 558.085938 193.066406 C 560.59375 193.707031 562.738281 195.339844 564.015625 197.59375 C 591.542969 245.953125 601.609375 297.6875 596.628906 344.222656 Z M 577.914062 339.355469 C 581.542969 299.960938 573.425781 256.730469 552.09375 215.65625 C 522.734375 232.933594 490.625 247.957031 456.1875 261.054688 C 476.234375 298.9375 491.039062 337.746094 495.015625 378.40625 C 525.285156 373.859375 557.378906 363.296875 577.910156 339.351562 Z M 487.304688 398.683594 C 445.019531 403.410156 408.4375 397.859375 408.4375 397.859375 C 403.734375 397.148438 400.269531 393.085938 400.308594 388.328125 C 400.386719 379.417969 400.996094 368.792969 402.140625 356.484375 C 381.25 372.578125 346.230469 401.09375 323.546875 427.769531 C 336.378906 457.496094 355.925781 492.109375 380.671875 522 C 382.480469 508.070312 384.933594 494.859375 388.363281 482.761719 C 389.6875 478.082031 394.324219 475.144531 399.125 475.941406 C 451.265625 484.605469 493.699219 472.71875 524.167969 447.730469 C 547.902344 428.261719 564.324219 400.972656 572.585938 369.71875 C 547.796875 387.246094 516.3125 395.449219 487.304688 398.691406 Z M 149.628906 502.671875 C 104.738281 485.339844 69.253906 454.074219 51.007812 413.765625 C 33.664062 375.457031 31.734375 328.84375 52.652344 277.921875 C 38.988281 270.558594 23.449219 264.144531 6.953125 258.191406 C 3.421875 256.914062 0.960938 253.6875 0.671875 249.941406 C 0.378906 246.195312 2.3125 242.625 5.605469 240.820312 C 49.75 216.640625 101.988281 202.855469 142.804688 197.515625 C 146.265625 197.0625 149.695312 198.53125 151.757812 201.347656 C 184.164062 245.628906 214.101562 325.113281 214.101562 325.113281 C 215.433594 328.660156 214.542969 332.660156 211.832031 335.3125 C 209.121094 337.957031 205.097656 338.753906 201.585938 337.335938 C 185.84375 330.984375 172.28125 326.011719 160.941406 322.457031 C 156.992188 332.933594 150.167969 352.992188 145.75 376.757812 C 187.085938 383.6875 229.535156 378.101562 272.476562 367.40625 C 275.1875 366.726562 278.058594 367.273438 280.332031 368.898438 C 282.609375 370.519531 284.058594 373.054688 284.304688 375.839844 C 288.082031 418.847656 295.207031 459.457031 306.4375 497.140625 C 307.175781 499.621094 306.875 502.300781 305.605469 504.558594 C 304.335938 506.816406 302.203125 508.460938 299.695312 509.117188 C 245.863281 523.191406 193.285156 519.523438 149.628906 502.667969 Z M 159.175781 485.847656 C 196.289062 499.550781 240.144531 502.898438 285.339844 492.921875 C 276.25 460.089844 270.050781 425.1875 266.3125 388.53125 C 224.53125 398.089844 183.214844 402.347656 142.914062 395.664062 C 139.472656 426.082031 141.367188 459.820312 159.175781 485.847656 Z M 125.324219 382.964844 C 131.703125 340.894531 146.535156 307 146.535156 307 C 148.4375 302.640625 153.261719 300.347656 157.84375 301.617188 C 166.429688 303.996094 176.535156 307.335938 188.128906 311.625 C 177.996094 287.28125 159.515625 246.070312 139.617188 217.257812 C 107.585938 221.960938 69.089844 231.878906 33.816406 248.050781 C 46.808594 253.40625 58.929688 259.195312 69.726562 265.640625 C 73.902344 268.132812 75.542969 273.367188 73.527344 277.800781 C 51.664062 325.925781 52.164062 369.988281 68.417969 405.890625 C 81.074219 433.855469 103.183594 456.78125 131.234375 472.847656 C 120.722656 444.371094 120.949219 411.835938 125.324219 382.972656 Z M 125.324219 382.964844 " fill-opacity="1" fill-rule="evenodd"/></g></svg>