<svg xmlns="http://www.w3.org/2000/svg" xmlns:xlink="http://www.w3.org/1999/xlink" width="800" zoomAndPan="magnify" viewBox="0 0 600 599.999999" height="800" preserveAspectRatio="xMidYMid meet" version="1.0"><path fill="#000000" d="M 593.75 489.585938 C 572 489.585938 554.300781 471.886719 554.300781 450.136719 C 554.300781 446.6875 551.5 443.886719 548.050781 443.886719 C 544.601562 443.886719 541.800781 446.6875 541.800781 450.136719 C 541.800781 471.886719 524.101562 489.585938 502.363281 489.585938 C 498.914062 489.585938 496.113281 492.386719 496.113281 495.835938 C 496.113281 499.289062 498.914062 502.085938 502.363281 502.085938 C 524.113281 502.085938 541.800781 519.789062 541.800781 541.539062 C 541.800781 544.988281 544.601562 547.789062 548.050781 547.789062 C 551.5 547.789062 554.300781 544.988281 554.300781 541.539062 C 554.300781 519.789062 572 502.085938 593.75 502.085938 C 597.199219 502.085938 600 499.289062 600 495.835938 C 600 492.386719 597.199219 489.585938 593.75 489.585938 Z M 548.050781 516.835938 C 543.238281 507.960938 535.914062 500.636719 527.039062 495.824219 C 535.914062 491.011719 543.238281 483.6875 548.050781 474.8125 C 552.863281 483.6875 560.1875 491.011719 569.0625 495.824219 C 560.1875 500.636719 552.875 507.960938 548.050781 516.835938 Z M 548.050781 516.835938 " fill-opacity="1" fill-rule="nonzero"/><path fill="#000000" d="M 247.773438 541.800781 C 226.023438 541.800781 208.324219 524.101562 208.324219 502.351562 C 208.324219 498.898438 205.523438 496.101562 202.074219 496.101562 C 198.625 496.101562 195.824219 498.898438 195.824219 502.351562 C 195.824219 524.101562 178.125 541.800781 156.386719 541.800781 C 152.9375 541.800781 150.136719 544.601562 150.136719 548.050781 C 150.136719 551.5 152.9375 554.300781 156.386719 554.300781 C 178.136719 554.300781 195.824219 572 195.824219 593.75 C 195.824219 597.199219 198.625 600 202.074219 600 C 205.523438 600 208.324219 597.199219 208.324219 593.75 C 208.324219 572 226.023438 554.300781 247.773438 554.300781 C 251.226562 554.300781 254.023438 551.5 254.023438 548.050781 C 254.023438 544.601562 251.226562 541.800781 247.773438 541.800781 Z M 202.085938 569.0625 C 197.273438 560.1875 189.949219 552.863281 181.074219 548.050781 C 189.949219 543.238281 197.273438 535.914062 202.085938 527.039062 C 206.898438 535.914062 214.226562 543.238281 223.101562 548.050781 C 214.226562 552.863281 206.914062 560.1875 202.085938 569.0625 Z M 202.085938 569.0625 " fill-opacity="1" fill-rule="nonzero"/><path fill="#000000" d="M 352.226562 58.199219 C 373.976562 58.199219 391.675781 75.898438 391.675781 97.648438 C 391.675781 101.101562 394.476562 103.898438 397.925781 103.898438 C 401.375 103.898438 404.175781 101.101562 404.175781 97.648438 C 404.175781 75.898438 421.875 58.199219 443.613281 58.199219 C 447.0625 58.199219 449.863281 55.398438 449.863281 51.949219 C 449.863281 48.5 447.0625 45.699219 443.613281 45.699219 C 421.863281 45.699219 404.175781 28 404.175781 6.25 C 404.175781 2.800781 401.375 0 397.925781 0 C 394.476562 0 391.675781 2.800781 391.675781 6.25 C 391.675781 28 373.976562 45.699219 352.226562 45.699219 C 348.773438 45.699219 345.976562 48.5 345.976562 51.949219 C 345.976562 55.398438 348.773438 58.199219 352.226562 58.199219 Z M 397.914062 30.9375 C 402.726562 39.8125 410.050781 47.136719 418.925781 51.949219 C 410.050781 56.761719 402.726562 64.085938 397.914062 72.960938 C 393.101562 64.085938 385.773438 56.761719 376.898438 51.949219 C 385.773438 47.136719 393.085938 39.8125 397.914062 30.9375 Z M 397.914062 30.9375 " fill-opacity="1" fill-rule="nonzero"/><path fill="#000000" d="M 51.949219 156.113281 C 55.398438 156.113281 58.199219 153.3125 58.199219 149.863281 C 58.199219 128.113281 75.898438 110.414062 97.636719 110.414062 C 101.085938 110.414062 103.886719 107.613281 103.886719 104.164062 C 103.886719 100.710938 101.085938 97.914062 97.636719 97.914062 C 75.886719 97.914062 58.199219 80.210938 58.199219 58.460938 C 58.199219 55.011719 55.398438 52.210938 51.949219 52.210938 C 48.5 52.210938 45.699219 55.011719 45.699219 58.460938 C 45.699219 80.210938 28 97.914062 6.25 97.914062 C 2.800781 97.914062 0 100.710938 0 104.164062 C 0 107.613281 2.800781 110.414062 6.25 110.414062 C 28 110.414062 45.699219 128.113281 45.699219 149.863281 C 45.699219 153.3125 48.5 156.113281 51.949219 156.113281 Z M 30.9375 104.164062 C 39.8125 99.351562 47.125 92.023438 51.949219 83.148438 C 56.761719 92.023438 64.085938 99.351562 72.960938 104.164062 C 64.085938 108.976562 56.761719 116.300781 51.949219 125.175781 C 47.136719 116.300781 39.8125 108.976562 30.9375 104.164062 Z M 30.9375 104.164062 " fill-opacity="1" fill-rule="nonzero"/><path fill="#000000" d="M 512.648438 437.6875 C 513.601562 436.226562 513.886719 434.4375 513.449219 432.75 C 503.363281 393.101562 495.125 352.511719 488.949219 312.101562 C 486.335938 294.960938 484.039062 277.539062 482.113281 260.148438 L 515.636719 279.324219 C 518.574219 281 522.324219 280.023438 524.085938 277.136719 L 559.925781 218.023438 C 561.574219 215.300781 560.914062 211.761719 558.375 209.824219 L 474.261719 145.4375 C 473.523438 144.863281 472.664062 144.476562 471.738281 144.273438 L 403.085938 129.949219 C 401.761719 129.675781 400.375 129.835938 399.148438 130.414062 C 385.949219 136.625 371.988281 141.085938 357.625 143.6875 C 342.773438 146.363281 327.636719 147.023438 312.613281 145.648438 C 311.210938 145.523438 309.898438 145.851562 308.75 146.5625 L 292 156.925781 C 291.8125 156.550781 291.726562 156.136719 291.460938 155.8125 C 290.363281 154.386719 288.6875 153.523438 286.898438 153.414062 C 258.925781 151.8125 230.75 148.539062 203.148438 143.6875 C 175.539062 138.835938 147.914062 132.300781 121.050781 124.273438 C 119.363281 123.761719 117.523438 124 116.023438 124.914062 C 114.511719 125.824219 113.460938 127.335938 113.125 129.074219 C 104.273438 174.800781 94.8125 220.875 85 266.023438 C 72.824219 322.011719 59.664062 378.636719 45.875 434.289062 C 45.460938 435.976562 45.761719 437.75 46.699219 439.199219 C 47.648438 440.648438 49.148438 441.648438 50.863281 441.949219 L 128.0625 455.511719 C 131.175781 456.0625 134.289062 454.136719 135.148438 451.050781 L 171.574219 322.039062 L 161.511719 455.675781 C 161.261719 458.875 163.5 461.75 166.664062 462.300781 L 243.875 475.863281 C 244.238281 475.925781 244.601562 475.960938 244.949219 475.960938 C 246.324219 475.960938 247.675781 475.511719 248.773438 474.648438 C 250.164062 473.574219 251.039062 471.960938 251.175781 470.199219 C 255.125 420.375 260.449219 369.976562 267.011719 320.386719 C 267.550781 316.324219 268.101562 312.273438 268.648438 308.238281 L 279.039062 295.960938 C 284.5625 319.289062 289.523438 342.925781 293.835938 366.398438 C 300.050781 400.175781 305.074219 434.636719 308.800781 468.824219 C 308.988281 470.539062 309.875 472.113281 311.261719 473.148438 C 312.351562 473.960938 313.675781 474.398438 315.011719 474.398438 C 315.375 474.398438 315.738281 474.375 316.085938 474.300781 L 508.460938 440.4375 C 510.175781 440.136719 511.675781 439.136719 512.625 437.675781 Z M 359.863281 156.011719 C 371.625 153.886719 383.125 150.550781 394.210938 146.148438 C 391.664062 156.75 384.25 172.449219 362.636719 176.25 C 341.0625 180.074219 328.710938 167.835938 322.664062 158.738281 C 335.113281 159.101562 347.585938 158.238281 359.863281 156.023438 Z M 124.101562 138.210938 C 149.335938 145.5 175.175781 151.488281 201 156.023438 C 226.5 160.511719 252.476562 163.648438 278.335938 165.425781 L 260.863281 176.238281 C 192.914062 170.523438 134.324219 154.125 121.664062 150.398438 C 122.460938 146.335938 123.3125 142.273438 124.101562 138.210938 Z M 239.289062 462.375 L 174.414062 450.976562 L 188.726562 260.863281 C 188.976562 257.664062 186.738281 254.800781 183.574219 254.238281 C 180.414062 253.6875 177.335938 255.613281 176.476562 258.699219 L 124.664062 442.238281 L 59.613281 430.800781 C 72.835938 377.125 85.488281 322.613281 97.210938 268.6875 C 104.8125 233.710938 112.125 198.1875 119.1875 162.6875 C 133.238281 166.773438 184.675781 180.863281 245.9375 187.363281 L 190.210938 274.636719 C 188.5 277.324219 189.074219 280.875 191.5625 282.875 L 245.488281 326.175781 C 247.988281 328.175781 251.511719 327.875 253.75 325.675781 C 247.875 370.976562 242.988281 416.875 239.273438 462.375 Z M 320.511719 460.851562 C 316.835938 428.539062 312.011719 396.039062 306.148438 364.148438 C 301.476562 338.664062 296.023438 312.976562 289.925781 287.6875 C 289.664062 286.574219 288.585938 282.5625 288.386719 281.449219 C 282.625 248.824219 272.699219 230.25 272.273438 229.488281 C 270.636719 226.460938 266.851562 225.324219 263.8125 226.976562 C 260.773438 228.613281 259.648438 232.398438 261.273438 235.4375 C 261.363281 235.601562 270.085938 252.101562 275.539062 280.773438 L 248.574219 312.636719 L 203.761719 276.648438 L 256.9375 193.351562 L 309.300781 160.9375 C 316.226562 173.75 331.085938 189.460938 354.738281 189.460938 C 357.925781 189.460938 361.273438 189.175781 364.789062 188.5625 C 394.335938 183.363281 405.0625 160.023438 407.476562 143.664062 L 467.789062 156.25 L 546.3125 216.363281 L 516.539062 265.460938 L 480.273438 244.726562 C 475.5625 215.925781 478.113281 197.4375 478.136719 197.25 C 478.636719 193.835938 476.273438 190.664062 472.863281 190.164062 C 469.460938 189.6875 466.289062 192.011719 465.773438 195.425781 C 465.648438 196.300781 462.675781 217.136719 468.4375 249.761719 C 468.648438 250.976562 468.9375 254.824219 469.023438 255.6875 C 471.085938 275.1875 473.625 294.761719 476.5625 314 C 482.460938 352.585938 490.226562 391.351562 499.675781 429.3125 L 320.476562 460.851562 Z M 320.511719 460.851562 " fill-opacity="1" fill-rule="nonzero"/></svg>