<svg xmlns="http://www.w3.org/2000/svg" xmlns:xlink="http://www.w3.org/1999/xlink" width="800" zoomAndPan="magnify" viewBox="0 0 600 464.999988" height="620" preserveAspectRatio="xMidYMid meet" version="1.0"><path fill="#000000" d="M 598.875 358.847656 C 598.550781 356.453125 597.8125 354.195312 596.660156 352.074219 C 596.71875 351.917969 596.769531 351.761719 596.8125 351.601562 L 596.261719 351.515625 C 595.414062 350.421875 594.503906 349.386719 593.519531 348.410156 C 591.855469 348.011719 591.710938 346.382812 590.179688 345.992188 C 587.507812 344.996094 584.78125 344.195312 581.996094 343.582031 L 581.75 343.171875 C 581.421875 343.070312 581.089844 343.007812 580.746094 342.980469 C 580.648438 343.042969 580.550781 343.09375 580.445312 343.171875 C 580.410156 343.171875 580.351562 343.171875 580.332031 343.15625 L 580.140625 342.894531 C 579.40625 342.941406 578.4375 342.722656 577.917969 342.714844 L 577.730469 342.351562 L 577.3125 342.328125 L 577.050781 342.644531 C 575.011719 342.570312 573.0625 342.433594 571.203125 342.460938 L 571.027344 342.152344 L 570.09375 342.152344 L 569.863281 342.464844 L 568.84375 342.484375 C 568.816406 342.484375 568.789062 342.457031 568.761719 342.441406 L 568.621094 342.179688 L 567.925781 342.199219 L 567.109375 342.226562 L 565.679688 342.289062 L 564.890625 342.328125 L 564.191406 342.367188 C 563.925781 342.382812 563.664062 342.410156 563.402344 342.410156 C 563.140625 342.40625 562.945312 342.503906 562.738281 342.410156 L 562.585938 342.171875 L 562.058594 342.207031 L 561.875 342.507812 C 561.710938 342.507812 561.542969 342.53125 561.367188 342.539062 L 561.1875 342.242188 L 556.820312 342.507812 L 556.710938 342.308594 C 556.5 342.101562 556.449219 342.476562 556.378906 342.511719 L 556.046875 342.53125 C 555.863281 342.164062 555.863281 342.164062 555.644531 342.554688 L 555.230469 342.570312 L 555.109375 342.308594 C 554.78125 342.332031 554.308594 342.308594 553.898438 342.308594 L 553.707031 342.585938 L 553.554688 342.585938 L 553.414062 342.324219 L 552.777344 342.324219 L 552.632812 342.539062 C 552.632812 342.554688 552.59375 342.539062 552.574219 342.539062 L 552.480469 342.335938 C 552.363281 342.265625 552.21875 342.308594 552.097656 342.300781 C 551.964844 342.292969 551.832031 342.292969 551.699219 342.300781 C 551.570312 342.300781 551.4375 342.226562 551.316406 342.339844 L 551.167969 342.554688 L 548.769531 342.46875 L 548.554688 342.730469 L 545.808594 342.570312 L 545.601562 342.8125 L 545.503906 342.628906 C 545.296875 342.417969 545.207031 342.753906 545.070312 342.78125 L 543.6875 342.667969 C 543.664062 342.667969 543.644531 342.636719 543.625 342.621094 L 543.535156 342.425781 C 543.515625 342.410156 543.492188 342.398438 543.46875 342.390625 L 541.105469 342.179688 C 541.046875 342.175781 540.992188 342.167969 540.9375 342.160156 C 540.917969 342.160156 540.902344 342.117188 540.882812 342.097656 L 540.792969 341.898438 L 539.3125 341.757812 L 539.101562 341.980469 L 538.941406 341.964844 L 538.804688 341.703125 L 534.519531 341.230469 L 534.386719 340.992188 L 532.546875 340.777344 L 532.382812 340.945312 C 532.1875 340.96875 531.996094 340.957031 531.804688 340.910156 L 531.222656 340.839844 L 530.636719 340.769531 L 529.96875 340.683594 L 529.378906 340.613281 C 529.1875 340.5625 528.996094 340.550781 528.800781 340.578125 L 528.648438 340.722656 L 528.472656 340.722656 L 528.328125 340.476562 L 528 340.4375 L 527.78125 340.628906 L 527.285156 340.566406 L 527.140625 340.304688 L 525.640625 340.113281 L 525.503906 339.902344 L 525.269531 340.078125 L 524.957031 340.015625 L 524.835938 339.792969 L 523.507812 339.632812 C 523.484375 339.632812 523.457031 339.660156 523.429688 339.675781 L 523.277344 339.816406 L 521.421875 339.582031 L 521.195312 339.769531 L 520.523438 339.6875 L 520.417969 339.523438 C 520.203125 339.34375 520.109375 339.59375 519.972656 339.621094 C 519.804688 339.613281 519.640625 339.582031 519.480469 339.53125 L 519.382812 339.371094 C 519.25 339.371094 519.160156 339.605469 518.992188 339.492188 L 518.847656 339.28125 C 515.480469 338.804688 512.09375 338.503906 508.691406 338.378906 L 508.492188 338.542969 L 508.332031 338.382812 C 508.15625 338.304688 508.070312 338.503906 507.945312 338.527344 L 507.832031 338.402344 C 507.664062 338.375 507.492188 338.371094 507.320312 338.386719 L 506.710938 338.386719 C 506.539062 338.40625 506.371094 338.398438 506.203125 338.363281 L 506.085938 338.242188 L 505.738281 338.242188 C 505.617188 338.308594 505.515625 338.394531 505.433594 338.503906 C 505.429688 338.664062 505.402344 338.820312 505.351562 338.972656 L 505.207031 339.09375 L 505.121094 339.878906 L 505.257812 340.050781 L 505.257812 340.203125 L 505.066406 340.367188 L 505.035156 340.679688 L 504.839844 340.84375 L 504.808594 341.152344 C 504.691406 341.234375 504.558594 341.304688 504.597656 341.394531 C 504.660156 341.53125 504.761719 341.558594 504.730469 341.65625 L 504.585938 341.761719 L 504.585938 341.777344 L 503.914062 342.039062 L 503.914062 342.757812 L 503.738281 342.90625 C 503.738281 343.433594 503.765625 343.957031 503.78125 344.464844 C 503.78125 344.484375 503.789062 344.503906 503.796875 344.519531 L 503.976562 344.648438 L 504.046875 345.53125 C 504.050781 345.550781 504.0625 345.570312 504.074219 345.589844 L 504.210938 345.667969 C 504.335938 346.40625 504.632812 348.195312 504.738281 348.765625 L 504.632812 348.890625 C 504.601562 349.054688 504.738281 349.179688 504.671875 349.351562 L 504.566406 349.484375 L 504.707031 350.011719 L 504.5625 350.21875 L 504.671875 350.605469 L 504.546875 350.796875 C 504.703125 351.292969 504.847656 351.777344 505.027344 352.234375 L 505.246094 352.3125 C 505.660156 353.445312 506.148438 354.546875 506.710938 355.617188 C 506.710938 355.632812 506.746094 355.640625 506.765625 355.65625 L 506.925781 355.671875 C 506.957031 355.699219 506.984375 355.734375 507.007812 355.769531 C 507.433594 356.554688 507.890625 357.316406 508.363281 358.0625 C 508.363281 358.078125 508.363281 358.105469 508.363281 358.128906 L 508.289062 358.308594 L 508.769531 359.003906 L 509.011719 359.359375 L 509.09375 359.453125 C 509.09375 359.453125 509.113281 359.46875 509.117188 359.484375 L 509.085938 359.523438 L 508.980469 359.621094 C 509.347656 360.234375 509.667969 360.867188 509.941406 361.523438 L 510.167969 361.542969 L 510.214844 361.640625 L 510.085938 361.835938 L 510.144531 361.921875 L 510.367188 361.949219 L 510.921875 363.105469 C 510.921875 363.105469 510.953125 363.128906 510.96875 363.136719 L 511.140625 363.136719 C 511.230469 363.253906 511.300781 363.378906 511.347656 363.515625 L 511.566406 363.964844 C 511.640625 364.089844 511.652344 364.246094 511.78125 364.335938 L 511.96875 364.335938 C 512.207031 364.828125 512.445312 365.324219 512.695312 365.832031 L 512.5625 366.023438 L 512.75 366.414062 L 512.609375 366.625 L 512.796875 367.015625 L 512.652344 367.226562 L 512.839844 367.613281 L 512.710938 367.816406 L 512.835938 368.082031 C 512.835938 368.082031 512.871094 368.097656 512.886719 368.105469 L 513.058594 368.105469 C 513.152344 368.179688 513.167969 368.296875 513.222656 368.390625 L 513.34375 368.640625 C 513.398438 368.730469 513.398438 368.855469 513.519531 368.902344 L 513.703125 368.902344 L 514.859375 371.296875 L 514.722656 371.492188 L 515.007812 372.085938 L 514.863281 372.292969 L 515.003906 372.585938 L 515.238281 372.585938 L 516.011719 374.183594 L 515.863281 374.378906 C 515.960938 374.484375 515.949219 374.667969 516.09375 374.773438 L 516.292969 374.773438 L 516.160156 374.972656 C 516.269531 375.195312 516.382812 375.429688 516.496094 375.667969 L 516.742188 375.667969 L 516.933594 376.0625 L 517.183594 376.0625 L 517.375 376.457031 L 517.226562 376.667969 L 517.296875 376.753906 L 517.53125 376.769531 L 517.796875 377.324219 C 517.796875 377.324219 517.832031 377.34375 517.851562 377.351562 L 518.03125 377.351562 L 518.105469 377.4375 L 517.957031 377.652344 L 518.683594 379.140625 L 518.945312 379.140625 L 520.175781 381.613281 L 520.4375 381.613281 L 520.535156 381.808594 L 520.394531 382.015625 L 520.859375 382.945312 L 519.839844 383.515625 L 518.765625 384.726562 C 514.820312 386.894531 510.839844 388.996094 506.816406 391.027344 C 502.828125 393.058594 498.671875 395.0625 494.886719 396.835938 L 493.269531 396.984375 L 459.777344 410.558594 L 458.039062 410.699219 C 456.632812 411.296875 455.261719 411.75 454.007812 412.410156 L 453.191406 413.164062 C 450.945312 414.324219 448.339844 415.027344 446.132812 416.191406 C 445.820312 416.476562 445.554688 416.714844 445.289062 416.976562 L 443.953125 417.578125 L 442.246094 417.699219 C 438.738281 419.113281 435.113281 420.667969 431.664062 421.726562 C 431.28125 422.03125 430.875 422.359375 430.488281 422.675781 C 428.714844 423.253906 427.039062 423.878906 425.269531 424.40625 C 424.695312 424.40625 424.167969 424.382812 423.691406 424.375 L 422.378906 425.300781 C 417.984375 426.710938 413.664062 427.898438 409.339844 429.078125 C 409.132812 429.125 408.925781 429.15625 408.714844 429.175781 L 407.625 429.085938 C 406.035156 429.332031 404.472656 429.816406 402.898438 430.164062 C 401.097656 430.558594 399.328125 431.15625 397.585938 431.386719 L 396.351562 431.203125 C 392.765625 431.917969 389.128906 432.8125 385.457031 433.417969 L 383.753906 433.152344 C 381.523438 433.523438 379.238281 433.988281 376.925781 434.3125 L 375.585938 435.007812 L 373.941406 434.695312 C 365.28125 435.945312 356.578125 436.730469 347.832031 437.058594 L 346.226562 436.574219 L 339.894531 436.679688 C 339.691406 436.671875 339.488281 436.648438 339.285156 436.613281 L 338.296875 436.210938 C 336.328125 435.949219 334.273438 436.183594 332.355469 435.875 L 331.289062 435.429688 C 320.394531 434.957031 309.613281 433.566406 298.953125 431.261719 L 297.527344 431.429688 L 296.246094 430.613281 L 294.988281 430.316406 L 293.519531 430.484375 C 291.238281 430.011719 289.089844 429.226562 286.914062 428.628906 C 284.757812 427.988281 282.535156 427.394531 280.707031 426.660156 C 279.722656 425.785156 279.734375 425.792969 278.507812 425.855469 C 277.949219 425.683594 277.410156 425.472656 276.882812 425.226562 C 276.527344 425.0625 276.199219 424.851562 275.863281 424.664062 L 275.132812 423.917969 C 274.027344 423.453125 272.878906 422.957031 271.660156 422.308594 C 271.257812 422.265625 270.773438 422.21875 270.289062 422.171875 L 269.3125 421.125 C 267.941406 420.488281 266.652344 419.636719 265.332031 418.921875 C 264.015625 418.203125 262.730469 417.421875 261.492188 416.597656 L 260.097656 416.289062 C 259.242188 415.734375 258.503906 415.300781 257.929688 414.886719 L 256.957031 413.574219 C 253.867188 411.4375 250.902344 409.109375 248.003906 406.714844 C 248.550781 406.453125 249.109375 406.238281 249.65625 405.980469 L 250.617188 405.128906 C 252.324219 404.203125 254.246094 403.4375 256.019531 402.421875 L 260.835938 399.859375 C 262.640625 398.945312 264.371094 397.914062 266.035156 396.761719 C 266.335938 396.425781 266.585938 396.144531 266.894531 395.796875 L 269.589844 394.152344 L 271.238281 393.628906 C 276.832031 389.921875 282.222656 385.941406 287.410156 381.6875 C 287.699219 381.273438 288.023438 380.8125 288.34375 380.351562 L 294.121094 375.363281 C 294.6875 375.101562 295.203125 374.820312 295.746094 374.535156 C 302.605469 368.300781 308.980469 361.601562 314.871094 354.445312 L 315.394531 354.085938 C 316.375 353.519531 317.058594 352.707031 317.453125 351.644531 C 317.550781 351.269531 317.738281 350.945312 318.007812 350.667969 L 319.027344 349.917969 C 325.046875 342.226562 330.210938 334 334.523438 325.238281 C 339.074219 316.089844 342.136719 306.46875 343.703125 296.371094 L 344.492188 294.460938 C 344.933594 291.132812 345.203125 287.789062 345.300781 284.433594 C 345.457031 280.894531 345.367188 277.367188 345.039062 273.839844 C 344.714844 270.003906 343.976562 266.246094 342.816406 262.574219 C 341.601562 258.558594 339.800781 254.820312 337.417969 251.367188 C 336.894531 250.898438 336.402344 250.371094 335.816406 249.941406 C 334.949219 248.890625 334.101562 247.824219 333.191406 246.847656 L 330.324219 244.101562 L 328.835938 242.285156 C 327.019531 240.890625 325.113281 239.636719 323.117188 238.519531 C 321.09375 237.582031 319.207031 236.539062 317.117188 235.804688 L 315.085938 234.621094 C 310.695312 233.207031 306.199219 232.585938 301.589844 232.761719 C 301.277344 232.78125 300.960938 232.761719 300.648438 232.761719 L 299.085938 232.535156 C 293.777344 233.058594 288.773438 234.578125 284.074219 237.09375 C 280.277344 239.117188 276.8125 241.597656 273.671875 244.542969 L 272.925781 245.722656 C 269.082031 249.375 265.683594 253.398438 262.730469 257.800781 L 261.328125 259.066406 C 260.355469 260.484375 259.621094 261.875 258.675781 263.46875 C 258.457031 263.820312 258.230469 264.253906 258.007812 264.699219 C 257.679688 264.023438 257.378906 263.339844 257.027344 262.683594 C 255.644531 260.066406 254.105469 257.546875 252.40625 255.125 C 248.738281 249.753906 244.183594 245.289062 238.734375 241.734375 C 238.117188 241.121094 237.460938 240.550781 236.765625 240.027344 C 234.476562 238.789062 232.0625 237.859375 229.535156 237.234375 C 227.003906 236.609375 224.4375 236.308594 221.832031 236.339844 C 219.667969 236.40625 217.519531 236.621094 215.390625 236.980469 C 213.289062 237.34375 211.226562 237.847656 209.195312 238.488281 C 208.910156 238.59375 208.636719 238.71875 208.371094 238.863281 L 207.054688 239.789062 C 206.175781 240.128906 205.3125 240.515625 204.472656 240.945312 C 198.609375 243.753906 193.640625 247.695312 189.570312 252.761719 C 189.382812 252.960938 189.179688 253.148438 188.964844 253.324219 L 187.78125 254.265625 C 184.890625 258.207031 182.515625 262.4375 180.65625 266.957031 C 180.207031 267.523438 179.816406 268.0625 179.429688 268.609375 C 179.371094 269.222656 179.3125 269.859375 179.257812 270.449219 C 178.6875 272.101562 178.121094 273.730469 177.695312 275.265625 L 176.722656 276.871094 C 175.964844 279.757812 175.335938 282.449219 174.882812 284.953125 C 174.945312 285.710938 175 286.324219 175.042969 286.84375 C 173.265625 297.730469 172.699219 308.675781 173.335938 319.6875 C 173.339844 319.929688 173.328125 320.171875 173.308594 320.414062 L 173.019531 321.632812 C 173.253906 327.355469 174.117188 332.980469 175.617188 338.507812 C 176.167969 339.300781 176.511719 340.175781 176.644531 341.132812 C 176.628906 341.660156 176.605469 342.28125 176.585938 342.945312 C 178.109375 348.621094 179.984375 354.175781 182.210938 359.613281 L 182.390625 361.472656 C 184.019531 365.351562 185.753906 369.167969 187.558594 372.78125 L 187.859375 374.480469 C 190.941406 380.6875 194.390625 386.6875 198.199219 392.480469 L 199.214844 393.230469 C 199.382812 393.382812 199.535156 393.546875 199.675781 393.726562 L 202.234375 397.328125 L 201.898438 397.414062 C 201.335938 397.390625 200.8125 397.371094 200.390625 397.320312 L 193.699219 398.601562 L 192.269531 399.3125 L 184.652344 400.398438 C 184.449219 400.417969 184.246094 400.425781 184.042969 400.425781 L 182.8125 400.21875 L 177.625 400.699219 C 175.574219 400.875 173.523438 401.125 171.464844 401.160156 L 165.980469 401.390625 C 164.140625 401.519531 162.328125 401.414062 160.5 401.421875 C 158.445312 401.378906 156.382812 401.445312 154.339844 401.320312 L 148.878906 400.988281 C 146.824219 400.914062 144.792969 400.679688 142.765625 400.414062 C 141.003906 400.191406 139.199219 400.109375 137.550781 399.761719 L 136.5 399.234375 L 132.445312 398.570312 L 131.003906 398.734375 C 129.679688 398.539062 128.363281 398.273438 127.066406 397.945312 L 125.699219 397.191406 C 113.890625 394.667969 102.714844 390.460938 92.175781 384.566406 L 91.386719 383.808594 C 90.621094 383.179688 89.75 382.792969 88.773438 382.644531 C 87.671875 381.941406 86.933594 381.480469 86.304688 381.070312 C 85.917969 380.515625 85.4375 380.0625 84.863281 379.703125 C 84.292969 379.34375 83.675781 379.113281 83.007812 379.003906 L 79.707031 376.65625 L 78.769531 375.523438 C 77.296875 374.542969 75.957031 373.363281 74.539062 372.269531 C 73.125 371.179688 71.71875 370.054688 70.394531 368.832031 L 69.105469 368.199219 L 68.132812 367.339844 L 67.304688 366.125 C 65.878906 364.8125 64.640625 363.53125 63.40625 362.339844 L 62.472656 361.832031 C 62.347656 361.738281 62.234375 361.632812 62.128906 361.515625 C 61.964844 361.222656 61.785156 360.941406 61.632812 360.617188 C 60.972656 359.757812 60.175781 358.976562 59.4375 358.15625 L 57.140625 355.667969 C 56.492188 354.816406 55.792969 354.007812 55.039062 353.242188 L 54.144531 352.628906 C 51.933594 350.089844 50.03125 347.285156 47.984375 344.582031 C 46.125 341.746094 44.144531 338.976562 42.46875 336.011719 L 41.371094 334.921875 C 37.53125 328.136719 34.152344 321.125 31.242188 313.890625 L 30.453125 312.671875 L 30.316406 311.585938 C 30.023438 310.457031 29.554688 309.40625 28.90625 308.4375 L 26.910156 302.886719 L 25.320312 297.175781 C 25.273438 296.976562 25.238281 296.78125 25.210938 296.578125 L 25.179688 295.542969 C 25.136719 295.339844 25.105469 295.125 25.050781 294.925781 L 23.699219 290.054688 L 22.691406 285.089844 L 21.691406 280.105469 L 21.167969 277.621094 L 20.820312 275.105469 L 20.636719 273.714844 C 20.625 273.519531 20.625 273.328125 20.636719 273.132812 L 20.742188 272.054688 C 20.464844 270 20.179688 267.929688 19.894531 265.847656 C 19.585938 263.765625 19.550781 261.632812 19.371094 259.492188 C 19.242188 259.074219 19.105469 258.585938 18.945312 258.085938 L 18.847656 256.734375 C 18.921875 256.210938 18.996094 255.683594 19.074219 255.132812 C 18.773438 252.101562 18.785156 249.050781 18.75 245.996094 C 18.75 242.941406 18.574219 239.890625 18.734375 236.839844 C 19.011719 230.734375 19.179688 224.628906 19.914062 218.570312 L 20.34375 217.101562 C 20.742188 211.738281 21.710938 206.628906 22.410156 201.574219 L 22.335938 200.460938 C 22.519531 198.847656 22.796875 197.25 23.171875 195.667969 L 24.140625 190.769531 L 25.105469 185.871094 L 26.476562 180.324219 L 27.671875 175.464844 C 28.082031 173.890625 28.488281 172.300781 28.894531 170.738281 L 28.980469 169.71875 L 29.351562 168.320312 L 30.082031 166.839844 C 30.320312 166.023438 30.585938 165.117188 30.871094 164.136719 L 31.015625 162.65625 C 31.417969 161.292969 31.800781 159.910156 32.277344 158.597656 L 33.078125 157.148438 C 34.5 153.101562 35.734375 148.988281 37.28125 145.109375 C 37.578125 144.585938 37.832031 144.15625 38.050781 143.773438 L 38.394531 142.160156 C 38.78125 141.1875 39.125 140.320312 39.394531 139.644531 L 40.121094 138.460938 C 41.371094 135.023438 42.976562 131.566406 44.453125 128.054688 C 44.519531 127.878906 44.574219 127.699219 44.617188 127.515625 L 44.84375 126.496094 C 45.851562 124.082031 46.945312 121.691406 48.078125 119.308594 C 49.210938 116.925781 50.296875 114.519531 51.496094 112.171875 L 51.945312 110.675781 C 52.808594 108.949219 53.664062 107.226562 54.503906 105.550781 L 55.1875 104.632812 C 55.820312 103.632812 56.3125 102.566406 56.660156 101.433594 C 57.328125 100.195312 57.949219 98.910156 58.667969 97.695312 L 59.335938 96.867188 C 59.695312 95.917969 60.128906 95 60.632812 94.121094 L 61.585938 92.890625 C 75.242188 67.898438 92.007812 45.203125 111.882812 24.800781 L 112.785156 23.628906 C 113.207031 23.296875 113.625 22.964844 113.964844 22.699219 C 114.691406 22.003906 115.382812 21.277344 116.039062 20.511719 L 116.902344 19.890625 C 117.953125 18.976562 118.972656 17.980469 120.003906 17.019531 C 121.210938 15.851562 122.507812 14.785156 123.773438 13.683594 L 124.578125 13.011719 C 124.695312 12.875 124.890625 12.835938 124.9375 12.617188 L 125.332031 12.265625 C 125.855469 11.792969 126.382812 11.332031 126.90625 10.898438 L 127.820312 10.238281 C 128.46875 9.644531 129.210938 9.066406 129.992188 8.402344 C 130.527344 7.890625 131.03125 7.347656 131.5 6.773438 C 131.445312 6.601562 131.066406 6.699219 131.324219 6.277344 L 132.078125 5.488281 L 131.4375 4.929688 L 130.296875 5.632812 L 130.113281 5.566406 L 131.117188 4.535156 L 130.867188 4.316406 L 131.917969 3.265625 L 131.675781 3.050781 C 132.316406 2.421875 133.085938 1.71875 132.703125 1.910156 C 132.085938 2.21875 131.367188 2.753906 131.453125 2.566406 L 132.242188 1.796875 L 131.5 1.148438 L 132.550781 0.105469 L 132.4375 0 L 131.140625 0.757812 L 131.023438 0.65625 C 130.5625 0.917969 130.070312 1.21875 129.734375 1.382812 C 129.527344 1.480469 129.667969 1.289062 129.472656 1.382812 C 129.148438 1.535156 128.382812 2.03125 128.316406 2 C 128.1875 1.933594 127.457031 2.402344 127.085938 2.558594 C 126.53125 2.730469 126.003906 2.96875 125.507812 3.273438 C 125.28125 3.410156 125.324219 3.273438 125.234375 3.273438 L 126.246094 2.300781 L 123.542969 3.808594 L 122.992188 3.34375 C 121.988281 4 121.546875 4.191406 121.554688 3.980469 C 121.554688 3.910156 121.363281 3.980469 121.261719 3.980469 L 118.898438 5.386719 L 118.777344 5.363281 C 118.652344 5.257812 118.675781 5.324219 118.617188 5.292969 C 117.929688 5.71875 117.300781 6.082031 116.339844 6.773438 C 115.195312 7.695312 114.007812 8.613281 112.992188 9.609375 L 112.296875 10.398438 C 111.503906 11.054688 110.78125 11.777344 110.125 12.570312 C 108.246094 14.167969 106.40625 15.847656 104.574219 17.617188 L 103.257812 18.585938 C 100.871094 20.777344 98.585938 23.074219 96.328125 25.394531 C 94.023438 27.675781 91.828125 30.042969 89.664062 32.429688 C 89.214844 32.808594 88.785156 33.167969 88.386719 33.511719 C 86.386719 35.613281 84.554688 37.847656 82.667969 40.023438 C 80.78125 42.199219 78.953125 44.410156 77.167969 46.65625 L 76.785156 47.152344 L 75.953125 48.523438 C 73.8125 51.117188 71.925781 53.753906 69.957031 56.324219 L 69.582031 56.867188 L 69.09375 57.789062 C 66.859375 60.878906 62.671875 66.738281 58.882812 72.628906 C 55.097656 78.523438 51.507812 84.304688 49.964844 86.925781 L 49.265625 87.765625 C 48.359375 89.144531 47.578125 90.722656 46.660156 92.058594 C 46.429688 92.339844 46.199219 92.628906 45.957031 92.9375 L 43.089844 98.078125 L 42.039062 99.445312 L 39.984375 103.328125 L 39.023438 104.621094 C 37.699219 107.085938 36.445312 109.550781 35.238281 111.996094 C 34.03125 114.445312 32.789062 116.832031 31.695312 119.273438 L 31.234375 120.882812 C 25.550781 132.929688 20.589844 145.265625 16.359375 157.890625 L 16.191406 158.53125 L 16.066406 159.582031 L 15.679688 160.929688 L 13.386719 168.085938 L 11.371094 175.332031 L 9.40625 182.59375 L 7.746094 189.945312 C 7.699219 190.152344 7.613281 190.351562 7.546875 190.554688 L 7.039062 191.707031 C 6.285156 194.804688 5.699219 197.980469 5.164062 201.1875 C 4.632812 204.390625 3.988281 207.59375 3.519531 210.832031 L 3.328125 212.328125 C 3.289062 212.53125 3.238281 212.726562 3.175781 212.921875 L 2.8125 213.988281 L 1.601562 223.765625 L 0.894531 233.613281 C 0.792969 235.257812 0.632812 236.898438 0.582031 238.546875 L 0.511719 243.5 C 0.511719 246.808594 0.34375 250.113281 0.453125 253.425781 C 0.578125 253.9375 0.714844 254.476562 0.839844 254.984375 L 0.910156 256.449219 L 0.660156 258.171875 C 0.695312 258.734375 0.726562 259.222656 0.753906 259.628906 L 1.136719 261.230469 L 1.34375 265.695312 C 1.441406 267.175781 1.648438 268.648438 1.792969 270.113281 C 2.117188 273.050781 2.441406 275.96875 2.761719 278.882812 C 2.789062 279.109375 2.84375 279.324219 2.886719 279.539062 C 3.007812 279.875 3.105469 280.21875 3.277344 280.589844 C 3.703125 282.488281 3.996094 284.5 4.363281 286.480469 L 5.585938 293.269531 C 5.957031 295.207031 6.429688 297.121094 7.007812 299.007812 C 7.21875 299.414062 7.382812 299.738281 7.578125 300.117188 C 9.425781 307.59375 11.675781 314.945312 14.339844 322.171875 L 14.652344 323.808594 C 15.421875 325.648438 16.214844 327.539062 16.996094 329.417969 L 17.335938 331.199219 C 18.148438 333.054688 18.839844 334.976562 19.78125 336.753906 L 20.261719 338.570312 C 21.207031 340.410156 22.039062 342.308594 23.003906 343.949219 C 23.238281 344.652344 23.429688 345.222656 23.585938 345.707031 C 24.300781 346.984375 24.945312 348.121094 25.585938 349.265625 C 25.699219 349.464844 25.851562 349.640625 25.96875 349.828125 L 26.757812 350.613281 C 27.636719 351.839844 28.417969 353.191406 29.25 354.484375 C 29.957031 355.578125 30.617188 356.71875 31.402344 357.761719 C 32.289062 358.996094 33.117188 360.335938 34.074219 361.4375 L 34.972656 362.226562 C 42.425781 372.410156 50.996094 381.550781 60.679688 389.644531 L 61.730469 391.015625 C 64.058594 393.066406 66.683594 394.839844 69.160156 396.761719 C 69.558594 397.234375 69.949219 397.699219 70.316406 398.074219 L 74.214844 400.699219 L 75.761719 401.285156 C 82.910156 405.859375 90.390625 409.820312 98.191406 413.167969 C 98.574219 413.480469 98.894531 413.695312 99.503906 414.136719 C 101.375 414.777344 103.488281 415.765625 105.648438 416.433594 C 106.070312 416.480469 106.433594 416.515625 106.929688 416.53125 L 108.480469 417.429688 L 113.691406 419.09375 C 115.460938 419.617188 117.269531 420.035156 119.105469 420.5 L 120.757812 420.5 C 122.753906 421.023438 124.792969 421.5 126.828125 421.835938 L 128.480469 421.722656 C 130.609375 422.109375 132.648438 422.53125 134.589844 422.828125 L 136.292969 423.476562 L 137.757812 423.613281 L 139.460938 423.449219 L 143.863281 424.015625 L 148.148438 424.34375 C 148.371094 424.351562 148.589844 424.34375 148.8125 424.320312 L 149.902344 424.09375 L 151.464844 424.15625 L 153.210938 424.710938 C 157.027344 424.902344 160.875 424.929688 164.746094 425.015625 C 168.605469 424.878906 172.503906 424.875 176.40625 424.613281 L 177.949219 424.066406 C 190.800781 423.195312 203.472656 421.175781 215.957031 418 L 217.359375 417.15625 L 218.863281 416.734375 C 227.421875 425.394531 236.835938 432.992188 247.109375 439.53125 L 248.277344 440.882812 C 256.628906 446.125 265.492188 450.285156 274.867188 453.359375 L 276.398438 454.390625 C 279.671875 455.328125 282.910156 456.417969 286.203125 457.214844 C 289.496094 458.011719 292.769531 458.8125 296.042969 459.519531 L 297.640625 460.304688 L 298.957031 460.105469 C 300.90625 460.285156 302.929688 460.789062 304.953125 461.125 C 306.746094 461.460938 308.566406 461.625 310.375 461.882812 L 316.582031 462.671875 C 318.617188 462.855469 320.667969 463.105469 322.625 463.105469 L 323.882812 462.773438 L 325.554688 463.386719 C 328.53125 463.683594 331.625 463.648438 334.722656 463.78125 L 336.464844 464.382812 C 338.511719 464.480469 340.578125 464.429688 342.625 464.402344 L 344.277344 464.894531 C 346.4375 464.851562 348.503906 464.863281 350.449219 464.773438 L 352.21875 464.121094 C 355.28125 463.9375 358.355469 463.804688 361.316406 463.570312 L 362.4375 463.046875 C 369.457031 462.464844 385.242188 460.199219 391.882812 459.011719 L 393.070312 459.191406 C 396.246094 458.710938 399.398438 457.773438 402.496094 457.371094 L 403.8125 457.519531 C 407.71875 456.550781 411.691406 455.664062 415.609375 454.605469 L 417.371094 454.679688 L 418.804688 453.722656 C 424.214844 452.304688 429.503906 450.613281 434.730469 449.011719 C 435.289062 448.613281 435.78125 448.273438 436.191406 447.960938 L 441.621094 446.136719 C 443.460938 445.539062 445.226562 444.917969 446.847656 444.222656 L 456.828125 440.210938 C 457.03125 440.128906 457.257812 440.085938 457.472656 440.023438 C 458.40625 440.398438 460.738281 438.972656 461.75 439.386719 L 466.457031 437.5 C 468.179688 436.734375 469.941406 436.054688 471.734375 435.464844 L 473.027344 435.410156 L 474.273438 434.339844 L 482.449219 431.046875 L 483.65625 429.996094 L 497.464844 424.4375 C 499.761719 423.492188 502 422.652344 504.332031 421.628906 L 511.359375 418.324219 L 513.132812 418.035156 C 514.601562 417.347656 515.917969 416.632812 517.292969 416.082031 L 518.441406 415.929688 C 522.097656 414.21875 527.691406 411.292969 532.988281 408.386719 L 533.347656 409.070312 C 533.347656 409.085938 533.332031 409.117188 533.320312 409.140625 L 533.175781 409.308594 L 533.582031 410.082031 L 533.394531 410.320312 L 533.679688 410.300781 L 533.832031 410.589844 L 533.65625 410.816406 L 533.917969 411.296875 L 534.214844 411.296875 L 535.277344 413.3125 C 535.277344 413.3125 535.277344 413.355469 535.261719 413.375 L 535.121094 413.539062 C 535.386719 414.207031 535.574219 414.523438 535.6875 414.539062 C 535.839844 414.507812 535.964844 414.503906 535.949219 414.609375 C 535.898438 414.675781 535.832031 414.757812 535.761719 414.839844 L 536.332031 415.910156 L 536.132812 416.15625 L 536.546875 416.945312 L 536.367188 417.171875 L 537.046875 418.449219 L 537.28125 418.417969 C 537.304688 418.417969 537.34375 418.417969 537.351562 418.433594 L 537.691406 419.066406 C 537.691406 419.066406 537.691406 419.109375 537.671875 419.128906 C 537.4375 419.421875 537.441406 419.433594 537.855469 419.394531 L 539.554688 422.515625 L 539.359375 422.753906 L 540.324219 424.503906 L 540.113281 424.765625 L 540.808594 426.023438 L 540.625 426.261719 L 540.890625 426.222656 C 541.039062 426.296875 541.046875 426.464844 541.128906 426.582031 C 541.214844 426.699219 541.257812 426.808594 541.320312 426.921875 C 541.386719 427.039062 541.457031 427.1875 541.542969 427.308594 C 541.625 427.433594 541.636719 427.59375 541.789062 427.671875 L 542.050781 427.628906 L 541.867188 427.867188 L 542.191406 428.441406 L 541.980469 428.703125 L 542.195312 429.089844 L 541.996094 429.332031 C 542.066406 429.46875 542.140625 429.597656 542.210938 429.722656 L 542.546875 429.683594 L 542.871094 430.253906 L 543.117188 430.214844 C 543.535156 430.804688 543.894531 431.429688 544.1875 432.09375 L 544.035156 432.273438 C 544.0625 432.535156 544.320312 432.65625 544.3125 432.921875 L 544.136719 433.125 L 544.582031 433.898438 L 544.371094 434.160156 L 544.707031 434.105469 L 545.320312 435.15625 L 545.644531 435.113281 C 545.917969 435.589844 546.191406 436.058594 546.464844 436.523438 C 546.464844 436.523438 546.464844 436.566406 546.464844 436.585938 C 546.140625 436.847656 546.464844 436.882812 546.117188 437.15625 C 546.1875 437.261719 546.253906 437.371094 546.308594 437.488281 C 546.363281 437.625 546.53125 437.699219 546.488281 437.882812 L 546.3125 438.089844 L 546.640625 438.035156 L 546.980469 438.609375 L 547.296875 438.554688 L 548.402344 440.507812 L 548.199219 440.769531 C 548.246094 440.882812 548.347656 440.953125 548.332031 441.089844 L 548.175781 441.277344 C 548.488281 441.980469 548.871094 442.640625 549.324219 443.261719 L 549.585938 443.199219 L 550.3125 444.453125 C 550.3125 444.453125 550.28125 444.507812 550.265625 444.535156 L 550.105469 444.734375 L 550.273438 445.019531 L 550.042969 445.308594 L 550.152344 445.496094 L 549.925781 445.789062 L 550.035156 445.976562 L 549.839844 446.238281 L 549.957031 446.4375 C 550.0625 446.414062 550.140625 446.390625 550.21875 446.375 C 550.371094 446.449219 550.371094 446.625 550.484375 446.726562 C 550.503906 446.75 550.613281 446.710938 550.691406 446.695312 L 551.21875 446.359375 L 551.613281 446.25 L 552.15625 445.910156 L 552.296875 445.878906 C 552.523438 445.835938 552.867188 445.574219 553.085938 445.574219 C 553.132812 445.5625 553.175781 445.539062 553.21875 445.507812 C 553.378906 445.402344 553.554688 445.335938 553.742188 445.308594 L 554.03125 445.132812 L 554.398438 445.039062 L 554.660156 444.867188 L 555.027344 444.765625 L 555.3125 444.597656 L 555.671875 444.492188 L 556.320312 444.085938 L 556.296875 444.304688 L 555.808594 444.4375 L 555.769531 444.757812 L 555.351562 444.882812 L 555.308594 445.234375 L 555.65625 445.425781 C 555.753906 445.664062 555.609375 445.875 555.640625 446.109375 C 555.640625 446.152344 555.792969 446.214844 555.890625 446.269531 L 556.734375 446.386719 L 557.246094 446.648438 C 557.542969 446.6875 557.835938 446.726562 558.101562 446.769531 L 558.277344 446.863281 C 558.539062 447.03125 559.132812 447.050781 559.347656 447.253906 C 559.40625 447.28125 559.472656 447.296875 559.539062 447.296875 C 559.796875 447.328125 560.035156 447.414062 560.25 447.5625 L 560.703125 447.632812 L 561.167969 447.867188 L 561.597656 447.929688 L 562.0625 448.160156 L 562.5 448.234375 L 562.964844 448.457031 L 565.933594 448.859375 L 566.132812 448.90625 L 566.441406 449.066406 C 566.503906 449.089844 566.566406 449.109375 566.632812 449.121094 L 569.566406 449.515625 C 569.632812 449.523438 569.695312 449.523438 569.757812 449.515625 L 570.097656 449.441406 C 570.746094 449.472656 571.410156 449.65625 572.023438 449.660156 L 572.40625 449.570312 L 572.832031 449.628906 L 573.355469 449.527344 L 574.234375 449.648438 L 574.761719 449.546875 L 575.695312 449.675781 C 575.847656 449.539062 576.238281 449.585938 576.585938 449.617188 C 577.039062 449.515625 577.457031 449.40625 577.925781 449.328125 C 578.1875 449.28125 578.125 449.15625 578.257812 449.085938 L 579.105469 448.90625 L 579.15625 448.417969 L 579.636719 448.304688 L 579.707031 447.601562 L 580.660156 447.472656 L 580.761719 446.464844 L 581.125 446.390625 C 581.152344 446.371094 581.203125 446.351562 581.203125 446.332031 L 581.339844 445.105469 C 581.339844 445.082031 581.292969 445.050781 581.269531 445.023438 L 580.914062 444.835938 C 580.945312 444.679688 580.960938 444.527344 580.964844 444.371094 C 580.964844 444.179688 581.117188 444.011719 580.933594 443.804688 L 580.605469 443.628906 L 580.679688 442.980469 L 580.242188 442.730469 L 580.613281 439.625 L 581.097656 439.511719 C 581.269531 438.148438 581.445312 436.789062 581.621094 435.4375 L 582.078125 435.328125 C 582.078125 435.152344 582.167969 435.003906 582.078125 434.824219 L 581.769531 434.648438 C 581.613281 434.328125 581.925781 434.078125 581.753906 433.757812 C 581.636719 433.691406 581.535156 433.636719 581.4375 433.578125 L 581.414062 433.40625 L 581.875 433.300781 L 582.054688 431.988281 L 581.652344 431.738281 L 581.742188 431.089844 L 582.175781 430.988281 L 581.789062 430.726562 L 582.011719 429.152344 C 582.011719 429.128906 582.058594 429.113281 582.082031 429.089844 L 582.414062 429.03125 C 582.570312 428.871094 582.496094 428.664062 582.5625 428.484375 C 582.625 428.300781 582.53125 428.035156 582.71875 427.859375 L 583.09375 427.792969 L 583.289062 426.5 L 583.773438 426.398438 L 583.890625 425.585938 L 583.503906 425.335938 L 583.972656 425.238281 C 584.132812 424.203125 584.292969 423.171875 584.453125 422.152344 L 584.898438 422.046875 L 585.023438 421.300781 C 585.023438 421.273438 585.070312 421.257812 585.09375 421.238281 L 585.425781 421.1875 C 585.632812 420.988281 585.425781 420.691406 585.6875 420.507812 L 586.046875 420.445312 C 586.257812 419.148438 586.476562 417.84375 586.691406 416.523438 L 586.316406 416.273438 L 586.757812 416.1875 L 586.785156 416.03125 L 586.40625 415.769531 C 586.503906 415.207031 586.59375 414.667969 586.6875 414.132812 C 587.117188 414.058594 587.117188 414.058594 586.753906 413.828125 C 586.742188 413.75 586.742188 413.671875 586.753906 413.59375 C 586.753906 413.546875 586.828125 413.507812 586.867188 413.464844 L 587.214844 413.410156 L 587.300781 412.917969 L 586.921875 412.65625 L 587.363281 412.574219 C 587.429688 412.183594 587.492188 411.804688 587.558594 411.433594 L 587.1875 411.171875 L 587.246094 410.851562 L 587.691406 410.753906 L 588.441406 406.554688 C 588.441406 406.53125 588.40625 406.5 588.382812 406.464844 L 588.101562 406.285156 C 588.136719 405.960938 588.835938 401.882812 588.90625 401.695312 C 588.90625 401.675781 588.976562 401.664062 589.015625 401.652344 L 589.355469 401.601562 L 589.820312 399.152344 L 590.296875 399.074219 L 590.414062 398.421875 L 590.03125 398.160156 L 591.082031 392.578125 L 591.558594 392.492188 L 591.929688 390.554688 C 592.109375 390.503906 592.3125 390.492188 592.355469 390.429688 C 592.464844 390.320312 592.464844 390.207031 592.355469 390.097656 C 592.15625 389.976562 591.96875 389.855469 592.089844 389.726562 L 592.507812 389.652344 L 592.140625 389.390625 L 592.300781 388.574219 L 592.742188 388.5 C 592.984375 387.285156 593.21875 386.082031 593.453125 384.890625 L 593.109375 384.625 L 593.453125 384.578125 C 593.484375 384.558594 593.535156 384.546875 593.539062 384.523438 L 593.851562 382.949219 C 593.851562 382.925781 593.8125 382.890625 593.789062 382.863281 L 593.5 382.65625 L 593.597656 382.160156 L 594.007812 382.085938 L 593.644531 381.820312 L 593.878906 380.675781 L 594.34375 380.597656 L 594.542969 379.585938 L 594.96875 379.566406 C 595.105469 378.996094 595.230469 378.4375 595.378906 377.882812 C 595.378906 377.859375 595.421875 377.84375 595.445312 377.824219 L 595.765625 377.800781 C 595.792969 377.789062 595.820312 377.773438 595.84375 377.75 C 595.859375 377.726562 595.863281 377.699219 595.867188 377.671875 L 595.886719 377.589844 L 595.90625 377.511719 L 595.949219 377.351562 C 596.527344 375.078125 597.230469 372.472656 597.753906 369.476562 L 597.84375 368.921875 L 597.859375 368.8125 L 597.898438 368.589844 C 597.898438 368.550781 597.902344 368.515625 597.917969 368.480469 C 597.9375 368.445312 597.976562 368.425781 598.007812 368.398438 L 598.347656 368.285156 C 598.445312 367.734375 598.511719 367.074219 598.578125 366.445312 L 598.679688 365.5 C 598.660156 365.144531 598.71875 364.675781 598.726562 364.273438 C 598.820312 362.59375 598.753906 360.921875 598.53125 359.253906 C 598.636719 359.140625 598.75 359 598.875 358.847656 Z M 183.097656 281.34375 C 183.71875 280.320312 184.058594 280.390625 184.136719 281.527344 C 183.511719 282.539062 183.179688 282.492188 183.097656 281.34375 Z M 36.710938 133.046875 L 38.472656 129.066406 L 39.328125 127.753906 C 44.976562 114.855469 51.300781 102.296875 58.308594 90.082031 C 58.46875 89.648438 58.652344 89.160156 58.835938 88.644531 C 63.238281 81.152344 67.796875 73.679688 72.769531 66.488281 L 73.859375 65.292969 C 81.394531 54.253906 89.625 43.765625 98.554688 33.820312 C 99.238281 33.054688 99.796875 32.632812 99.761719 32.90625 C 99.65625 33.152344 99.515625 33.375 99.335938 33.570312 L 95.605469 37.835938 L 94.707031 39.191406 L 93.722656 40.28125 L 92.914062 40.980469 C 92.574219 41.390625 92.277344 41.828125 92.023438 42.292969 L 91.683594 42.75 C 85.296875 50.347656 79.449219 58.390625 73.859375 66.558594 C 73.035156 67.457031 72.3125 68.425781 71.695312 69.472656 L 71.214844 70.480469 C 70.164062 72 69.167969 73.65625 68.085938 75.324219 L 67.050781 76.511719 C 59.808594 88.007812 53.191406 99.847656 47.195312 112.035156 L 46.753906 113.515625 C 44.890625 117.476562 42.941406 121.378906 41.277344 125.332031 L 40.347656 126.761719 L 38.042969 132.011719 C 37.222656 133.160156 36.601562 134.40625 36.179688 135.753906 C 36.425781 134.492188 36.558594 133.816406 36.710938 133.046875 Z M 28.46875 155.054688 C 28.585938 154.574219 28.847656 154.171875 29.023438 154.199219 C 29.066406 154.199219 29.140625 154.160156 29.148438 154.25 C 29.148438 154.410156 29.125 154.570312 29.082031 154.726562 C 29.011719 155.042969 28.875 155.332031 28.675781 155.585938 C 28.605469 155.667969 28.578125 155.585938 28.535156 155.585938 C 28.378906 155.699219 28.351562 155.539062 28.46875 155.054688 Z M 26.4375 319.175781 C 26.054688 318.328125 25.648438 317.472656 25.386719 316.703125 C 25.121094 316.308594 24.9375 316.027344 24.734375 315.730469 C 23.90625 313.890625 23.375 311.746094 22.5625 309.863281 L 21.992188 309.003906 C 21.90625 308.808594 21.808594 308.621094 21.730469 308.417969 C 20.949219 306.347656 20.28125 304.242188 19.734375 302.097656 L 18.992188 300.644531 L 17.046875 293.371094 C 16.34375 290.953125 16.027344 288.433594 15.496094 285.957031 C 15.015625 283.46875 14.535156 280.96875 14.050781 278.460938 C 13.734375 275.925781 13.414062 273.382812 13.097656 270.832031 C 13.132812 270.390625 13.175781 269.847656 13.222656 269.257812 C 13.046875 267.84375 12.871094 266.425781 12.695312 264.996094 L 12.433594 260.679688 C 12.515625 260.117188 12.589844 259.574219 12.671875 259.003906 C 12.445312 255.183594 12.136719 251.335938 12.234375 247.492188 L 12.46875 246.417969 C 12.503906 246.226562 12.53125 246.03125 12.546875 245.839844 L 12.546875 244.390625 C 12.367188 238.125 12.929688 231.871094 13.207031 225.75 C 13.339844 225.273438 13.417969 224.925781 13.539062 224.585938 L 13.667969 223.980469 L 13.746094 223.261719 C 14.296875 218.585938 14.636719 213.875 15.363281 209.214844 C 16.152344 204.570312 16.707031 199.871094 17.710938 195.257812 L 17.863281 194.546875 L 18.035156 193.925781 C 18.175781 193.597656 18.316406 193.269531 18.460938 192.933594 C 18.878906 191.332031 19.167969 189.683594 19.511719 188.054688 C 19.855469 186.429688 20.160156 184.726562 20.628906 183.097656 C 20.703125 182.800781 20.828125 182.523438 21 182.269531 C 21.035156 182.652344 20.984375 183.023438 20.855469 183.382812 C 19.882812 187.375 19.152344 191.421875 18.273438 195.503906 L 18.253906 197.082031 C 15.648438 211.289062 14.167969 225.613281 13.8125 240.050781 C 13.921875 240.578125 14.035156 241.101562 14.140625 241.582031 L 14.140625 242.964844 L 13.8125 244.640625 C 13.890625 247.753906 13.710938 250.875 13.988281 253.96875 C 14.1875 257.058594 14.386719 260.144531 14.589844 263.21875 C 14.519531 263.636719 14.464844 263.988281 14.40625 264.34375 C 14.394531 264.78125 14.414062 265.21875 14.460938 265.65625 L 15.875 276.714844 C 16.378906 280.390625 17.253906 284.007812 17.929688 287.65625 C 18.101562 288.445312 18.15625 289.242188 18.09375 290.046875 C 18.117188 290.28125 18.128906 290.496094 18.167969 290.703125 C 18.628906 292.804688 19.265625 294.875 19.839844 297.082031 C 20.046875 297.488281 20.285156 297.960938 20.582031 298.53125 C 21.328125 301.132812 21.914062 303.9375 23.003906 306.722656 L 23.1875 308.269531 L 26.003906 316.296875 C 26.0625 316.84375 26.148438 317.386719 26.265625 317.921875 C 26.363281 318.144531 26.460938 318.367188 26.558594 318.578125 C 26.769531 318.933594 26.886719 319.316406 26.90625 319.730469 C 26.890625 319.898438 26.65625 319.648438 26.4375 319.175781 Z M 288.777344 257.523438 L 290.566406 257.050781 C 290.28125 257.574219 289.996094 258.085938 289.679688 258.671875 C 289.105469 258.808594 288.539062 258.984375 287.988281 259.199219 C 287.894531 258.726562 288.328125 258.101562 288.777344 257.523438 Z M 249.128906 287.8125 Z M 218.863281 374.984375 C 217.640625 373.179688 216.613281 371.308594 215.601562 369.570312 C 214.597656 367.894531 213.625 365.949219 212.824219 364.449219 C 211.207031 361.34375 210.183594 359.15625 210 358.789062 C 209.941406 358.605469 209.894531 358.421875 209.867188 358.230469 L 209.78125 357.136719 C 206.925781 351.164062 204.542969 345.007812 202.632812 338.671875 L 202.742188 337.117188 C 202.3125 335.492188 201.847656 333.84375 201.503906 332.203125 L 200.71875 331.039062 C 199.980469 327.511719 199.453125 323.949219 199.140625 320.359375 C 198.832031 316.898438 198.761719 312.898438 198.792969 309.1875 C 198.820312 301.800781 199.585938 294.492188 201.085938 287.257812 C 201.386719 286.78125 201.640625 286.355469 201.941406 285.929688 C 202.9375 281.492188 204.480469 277.253906 206.582031 273.222656 C 206.96875 272.929688 207.332031 272.609375 207.664062 272.253906 C 208.066406 271.761719 208.386719 271.21875 208.625 270.625 C 208.597656 270.007812 208.8125 269.488281 209.265625 269.070312 L 210.238281 268.640625 C 210.296875 268.304688 210.375 267.976562 210.472656 267.648438 C 211.398438 266.644531 212.433594 265.761719 213.570312 265.003906 L 214.527344 265.003906 C 215.761719 264.285156 217.070312 263.746094 218.453125 263.386719 C 219.203125 263.195312 219.964844 263.046875 220.730469 262.941406 L 221.949219 262.800781 C 222.335938 262.757812 222.238281 262.828125 222.40625 262.785156 C 223.070312 262.8125 223.695312 262.984375 224.277344 263.308594 C 225.464844 263.9375 226.542969 264.71875 227.507812 265.652344 L 228.558594 266.003906 C 228.648438 266.328125 228.71875 266.582031 228.792969 266.839844 C 228.855469 266.96875 228.929688 267.09375 229.019531 267.207031 C 231.285156 269.796875 233.183594 272.632812 234.722656 275.707031 C 234.804688 275.839844 234.898438 275.960938 235.003906 276.074219 C 235.226562 276.242188 235.449219 276.410156 235.714844 276.648438 C 236.148438 277.59375 236.597656 278.632812 237.074219 279.898438 L 237.074219 281.253906 C 237.359375 281.574219 237.660156 281.925781 237.957031 282.304688 C 238.921875 285.109375 239.828125 288.246094 240.808594 291.554688 L 240.808594 293.363281 C 241.53125 295.761719 242.320312 298.273438 243.261719 300.871094 L 245.816406 307.925781 L 253.242188 309.605469 C 255.648438 310.089844 258.03125 309.988281 260.386719 309.300781 C 261.277344 309.042969 262.132812 308.707031 262.964844 308.292969 C 263.488281 308.015625 264.015625 307.710938 264.511719 307.382812 C 265.285156 306.882812 266.003906 306.316406 266.675781 305.683594 C 267.140625 305.261719 267.578125 304.8125 267.988281 304.335938 C 269.015625 303.167969 269.925781 301.914062 270.714844 300.574219 C 271.351562 299.824219 271.898438 299.1875 272.371094 298.632812 C 273.894531 295.628906 275.246094 292.550781 276.4375 289.398438 C 277.542969 286.539062 278.539062 283.761719 279.488281 281.070312 C 279.558594 280.863281 279.671875 280.667969 279.765625 280.46875 L 280.457031 279.589844 C 280.550781 279.402344 280.65625 279.21875 280.738281 279.023438 L 280.976562 278.363281 L 281.203125 277.722656 L 281.421875 277.117188 L 281.613281 276.59375 C 281.644531 276.507812 281.632812 276.546875 281.640625 276.511719 C 281.648438 276.480469 281.640625 276.511719 281.859375 276.121094 L 282.617188 274.792969 C 283.105469 273.894531 283.699219 273.09375 284.226562 272.230469 C 285.320312 270.59375 286.5 269.027344 287.773438 267.53125 C 290.027344 264.816406 292.65625 262.535156 295.65625 260.679688 C 297.941406 259.21875 300.441406 258.460938 303.152344 258.398438 C 305.96875 258.457031 308.609375 259.175781 311.066406 260.546875 L 312.90625 261.664062 L 313.21875 261.914062 L 313.859375 262.394531 C 313.972656 262.464844 314.082031 262.542969 314.1875 262.625 C 314.28125 262.703125 314.304688 262.824219 314.363281 262.921875 C 314.414062 263.128906 314.464844 263.339844 314.523438 263.597656 C 315.941406 264.929688 317.042969 266.484375 317.828125 268.265625 C 318.789062 270.507812 319.421875 272.835938 319.722656 275.257812 C 320.109375 278.257812 320.242188 281.265625 320.117188 284.289062 C 320.066406 285.914062 319.980469 287.570312 319.851562 289.277344 C 319.761719 291.066406 319.441406 292.371094 319.269531 293.945312 C 319.042969 294.382812 318.828125 294.785156 318.589844 295.238281 C 316.875 304.300781 313.695312 312.816406 309.050781 320.785156 L 307.90625 321.804688 L 307.644531 323.164062 C 301.75 333.039062 294.789062 342.09375 286.753906 350.324219 C 278.765625 358.726562 270.027344 366.25 260.53125 372.902344 L 259.007812 373.429688 C 257.871094 374.300781 256.667969 374.867188 255.648438 375.679688 L 255.035156 376.449219 C 254.90625 376.535156 254.769531 376.609375 254.628906 376.675781 L 253.5625 376.9375 C 251.042969 378.636719 248.234375 380.042969 245.503906 381.574219 L 243.90625 381.914062 C 243.199219 382.332031 242.375 382.703125 241.542969 383.089844 L 240.472656 384.089844 C 236.8125 385.863281 233.058594 387.460938 229.257812 388.976562 C 225.484375 384.542969 222.019531 379.882812 218.863281 374.996094 Z M 297.261719 445.789062 C 296.992188 445.949219 296.699219 446 296.390625 445.941406 C 293.109375 445.15625 289.785156 444.496094 286.546875 443.527344 C 286.375 443.460938 286.226562 443.355469 286.109375 443.210938 C 285.980469 443.042969 286.21875 442.945312 286.753906 443.054688 C 287.183594 443.152344 287.605469 443.273438 288.023438 443.417969 C 288.640625 443.394531 289.183594 443.324219 289.660156 443.285156 L 296.6875 444.945312 C 297.375 445.289062 297.453125 445.570312 297.261719 445.789062 Z M 566.175781 402.886719 L 566.0625 402.925781 C 566.050781 402.90625 566.035156 402.886719 566.015625 402.875 C 565.988281 402.875 566.015625 402.816406 565.917969 402.835938 L 565.761719 402.886719 L 565.699219 402.816406 L 565.484375 402.886719 L 565.320312 402.707031 L 565.585938 402.496094 L 565.996094 402.316406 L 566.304688 402.09375 L 566.320312 402.09375 Z M 522.128906 360.6875 L 521.757812 360.042969 L 521.820312 360.027344 L 522.347656 360.730469 L 522.390625 360.730469 L 522.542969 360.683594 C 522.644531 360.726562 522.671875 360.832031 522.738281 360.90625 L 522.945312 361.167969 C 523.011719 361.238281 523.027344 361.355469 523.144531 361.382812 L 523.3125 361.335938 L 523.988281 362.25 L 523.875 362.433594 L 524.050781 362.675781 L 523.925781 362.875 L 523.757812 362.589844 L 523.496094 362.589844 L 522.554688 360.988281 L 522.316406 360.988281 L 522.398438 360.855469 C 522.457031 360.648438 522.199219 360.761719 522.128906 360.6875 Z M 551.003906 400.5 C 550.917969 400.585938 550.816406 400.648438 550.703125 400.691406 C 550.644531 400.71875 550.582031 400.730469 550.515625 400.730469 C 550.421875 400.574219 550.332031 400.414062 550.253906 400.25 C 550.277344 400.230469 550.300781 400.207031 550.324219 400.1875 C 550.375 400.148438 550.433594 400.132812 550.496094 400.140625 C 550.53125 400.140625 550.523438 400.183594 550.535156 400.203125 L 550.820312 400.15625 Z M 526.859375 367.851562 L 526.652344 367.503906 L 526.746094 367.363281 C 526.769531 367.285156 526.722656 367.277344 526.6875 367.261719 L 526.972656 367.695312 Z M 525.359375 364.925781 L 525.96875 365.804688 L 525.925781 365.859375 L 525.726562 365.523438 L 525.476562 365.523438 L 525.421875 365.433594 L 525.546875 365.242188 Z M 536.625 359.171875 C 536.609375 359.230469 536.582031 359.28125 536.542969 359.324219 C 536.523438 359.34375 536.511719 359.324219 536.511719 359.324219 L 536.367188 359.558594 L 536.195312 359.5 C 536.222656 359.390625 536.265625 359.28125 536.316406 359.175781 C 536.347656 359.113281 536.410156 359.019531 536.410156 359.019531 C 536.492188 359.035156 536.570312 359.058594 536.648438 359.09375 C 536.640625 359.125 536.632812 359.15625 536.621094 359.1875 Z M 525.207031 364.6875 L 525.316406 364.851562 L 525.132812 364.851562 C 525.117188 364.851562 525.117188 364.832031 525.105469 364.820312 Z M 526.441406 366.878906 L 526.660156 367.214844 C 526.597656 367.214844 526.523438 367.214844 526.5 367.214844 L 526.378906 367.011719 C 526.402344 366.972656 526.421875 366.933594 526.4375 366.894531 Z M 526.363281 366.757812 C 526.3125 366.746094 526.261719 366.742188 526.210938 366.742188 L 526.183594 366.699219 L 526.300781 366.671875 Z M 527.132812 353.632812 C 526.957031 353.695312 526.777344 353.71875 526.589844 353.703125 L 526.445312 353.746094 L 525.5 352.671875 L 525.472656 352.640625 L 525.472656 352.621094 L 525.523438 352.527344 C 525.570312 352.523438 525.617188 352.523438 525.664062 352.527344 L 526.292969 352.6875 Z M 521.664062 359.839844 L 521.664062 359.804688 Z M 524.097656 363.105469 L 524.082031 363.128906 L 523.925781 362.867188 Z M 530.867188 375.511719 L 531.007812 375.3125 C 530.910156 375.144531 530.820312 374.992188 530.742188 374.839844 L 530.480469 374.839844 L 530.171875 374.316406 C 530.171875 374.300781 530.171875 374.277344 530.171875 374.257812 L 530.304688 374.085938 C 530.234375 373.980469 530.175781 373.847656 530.09375 373.730469 L 529.832031 373.304688 L 529.609375 372.929688 L 529.386719 372.550781 L 529.121094 372.128906 L 528.898438 371.753906 C 528.816406 371.613281 528.722656 371.476562 528.648438 371.328125 C 528.574219 371.179688 528.457031 371.105469 528.464844 370.949219 L 528.582031 370.789062 L 528.414062 370.507812 L 528.148438 370.507812 L 527.984375 370.226562 L 528.125 370.019531 L 526.945312 368.03125 C 526.964844 368.054688 526.976562 368.085938 527.011719 368.097656 L 527.191406 368.050781 L 527.070312 368.230469 L 527.363281 368.667969 L 527.582031 368.617188 L 527.746094 368.878906 L 527.96875 368.828125 L 528.132812 369.089844 L 527.996094 369.28125 L 528.058594 369.328125 L 528.269531 369.289062 C 528.347656 369.414062 528.421875 369.527344 528.5 369.648438 L 528.550781 369.648438 L 528.710938 369.605469 L 528.777344 369.65625 L 528.640625 369.847656 L 529.257812 370.804688 L 529.480469 370.753906 L 530.492188 372.371094 L 530.722656 372.324219 L 530.804688 372.453125 L 530.667969 372.628906 L 531.425781 373.871094 L 531.617188 373.828125 C 531.726562 373.875 531.734375 373.988281 531.796875 374.070312 L 531.9375 374.292969 C 532 374.375 532.003906 374.492188 532.121094 374.535156 L 532.3125 374.492188 L 532.394531 374.621094 L 532.25 374.800781 L 532.675781 375.519531 L 531.308594 376.335938 Z M 575.878906 388.605469 C 576.191406 388.550781 576.476562 388.617188 576.730469 388.808594 C 576.421875 388.871094 576.136719 388.8125 575.878906 388.632812 Z M 558.398438 359.574219 C 558.625 359.535156 558.867188 359.664062 559.113281 359.574219 L 559.253906 359.339844 L 559.371094 359.527344 L 558.65625 360.019531 C 558.257812 359.742188 557.851562 359.480469 557.449219 359.210938 L 558.238281 359.269531 Z M 548.796875 357.882812 C 549.207031 357.957031 549.636719 358.003906 550.050781 358.070312 L 549.304688 358.5 L 549.042969 358.40625 L 549.085938 358.167969 L 548.691406 358.027344 Z M 548.148438 358.046875 L 548.148438 358.070312 L 548.027344 358.027344 L 548.140625 358.042969 Z M 529.714844 344.375 L 531.136719 344.605469 L 531.363281 344.40625 L 536.335938 345.15625 L 536.558594 344.941406 L 536.71875 344.964844 L 536.863281 345.242188 L 539.003906 345.542969 L 539.097656 345.75 C 539.140625 345.78125 539.1875 345.800781 539.238281 345.816406 L 541.804688 346.152344 C 541.933594 346.167969 541.988281 346.277344 542.039062 346.414062 C 542.066406 346.429688 542.082031 346.457031 542.109375 346.457031 L 542.871094 346.550781 L 543.09375 346.320312 L 544.082031 346.4375 L 544.214844 346.699219 L 545.195312 346.8125 L 545.339844 347.101562 C 545.367188 347.105469 545.394531 347.105469 545.421875 347.101562 C 545.484375 347.101562 545.535156 347.121094 545.542969 347.222656 C 545.550781 347.320312 545.5 347.367188 545.4375 347.371094 C 545.335938 347.371094 545.230469 347.363281 545.128906 347.34375 L 544.964844 347.546875 C 544.699219 347.648438 544.480469 347.46875 544.230469 347.546875 L 544.085938 347.722656 C 544.058594 347.722656 544.03125 347.753906 544.007812 347.75 L 543.246094 347.652344 L 543.019531 347.882812 L 539.53125 347.394531 L 539.402344 347.132812 L 538.414062 346.988281 L 538.273438 346.703125 L 536.960938 346.5 L 536.875 346.304688 C 536.855469 346.28125 536.839844 346.238281 536.820312 346.230469 C 536.765625 346.21875 536.710938 346.210938 536.652344 346.207031 L 534.515625 345.871094 L 534.417969 345.65625 C 534.402344 345.632812 534.382812 345.617188 534.359375 345.597656 C 534.332031 345.589844 534.304688 345.585938 534.277344 345.582031 L 531.035156 345.058594 C 531.007812 345.0625 530.980469 345.0625 530.953125 345.058594 C 530.929688 345.046875 530.90625 345.03125 530.886719 345.011719 L 530.796875 344.828125 C 530.617188 344.757812 530.429688 344.714844 530.234375 344.703125 L 529.652344 344.601562 C 529.605469 344.570312 529.578125 344.523438 529.574219 344.464844 C 529.605469 344.40625 529.652344 344.386719 529.714844 344.402344 Z M 526.214844 343.957031 C 526.230469 343.929688 526.253906 343.90625 526.28125 343.890625 C 526.324219 343.871094 526.363281 343.910156 526.375 343.992188 C 526.375 344.027344 526.367188 344.066406 526.355469 344.101562 C 526.367188 344.179688 526.335938 344.238281 526.265625 344.273438 C 526.203125 344.300781 526.164062 344.203125 526.191406 344.0625 C 526.195312 344.027344 526.203125 343.992188 526.214844 343.957031 Z M 521 342.773438 L 521.214844 342.597656 L 522.714844 342.832031 L 522.863281 343.09375 L 523.523438 343.199219 C 523.582031 343.417969 523.726562 343.523438 523.957031 343.507812 C 523.777344 343.667969 523.691406 343.757812 523.566406 343.851562 L 523.066406 343.769531 L 522.929688 343.539062 L 520.957031 343.21875 C 520.761719 343.046875 520.578125 342.867188 520.386719 342.695312 Z M 515.339844 341.859375 L 515.492188 341.738281 L 516.160156 341.835938 L 516.304688 342.058594 L 518.230469 342.351562 L 517.859375 342.738281 L 517.789062 342.902344 L 514.859375 342.449219 L 514.714844 342.226562 L 512.835938 341.960938 L 512.953125 341.84375 C 512.949219 341.71875 513 341.617188 513.101562 341.542969 C 513.132812 341.511719 513.164062 341.472656 513.1875 341.433594 L 513.1875 341.414062 L 514.9375 341.648438 C 515.070312 341.695312 515.070312 341.953125 515.339844 341.859375 Z M 512.414062 350.425781 L 512.011719 350.394531 L 511.882812 350.132812 L 512.003906 349.96875 C 511.867188 349.667969 511.78125 349.339844 511.664062 349.027344 L 511.796875 348.929688 C 511.945312 348.960938 512.082031 348.996094 512.222656 349.027344 C 512.296875 349.210938 512.371094 349.394531 512.449219 349.570312 L 512.316406 349.746094 L 512.476562 350.105469 C 512.355469 350.1875 512.332031 350.289062 512.410156 350.414062 Z M 513.027344 351.769531 C 513 351.785156 512.972656 351.800781 512.945312 351.8125 C 512.902344 351.855469 512.847656 351.871094 512.789062 351.855469 C 512.742188 351.855469 512.789062 351.777344 512.902344 351.722656 C 512.925781 351.703125 512.953125 351.691406 512.980469 351.679688 C 513.007812 351.671875 513.03125 351.671875 513.058594 351.679688 C 513.085938 351.671875 513.078125 351.707031 513.027344 351.757812 Z M 519.410156 362.746094 C 519.445312 362.777344 519.441406 362.816406 519.382812 362.867188 C 519.335938 362.898438 519.289062 362.898438 519.242188 362.867188 C 519.203125 362.808594 519.167969 362.75 519.140625 362.6875 L 518.941406 362.6875 C 518.773438 362.597656 518.804688 362.402344 518.648438 362.300781 L 518.476562 362.300781 C 518.460938 362.300781 518.4375 362.285156 518.429688 362.269531 L 518.1875 361.828125 L 517.949219 361.808594 L 516.847656 359.78125 L 516.96875 359.597656 L 516.65625 359.023438 L 516.785156 358.820312 L 516.367188 358.054688 L 516.464844 357.917969 C 516.464844 357.898438 516.492188 357.875 516.488281 357.859375 C 516.472656 357.828125 516.457031 357.792969 516.4375 357.765625 L 515.757812 356.523438 C 515.785156 356.457031 515.808594 356.386719 515.828125 356.316406 C 515.832031 356.292969 515.832031 356.269531 515.828125 356.246094 C 515.820312 356.222656 515.8125 356.203125 515.796875 356.183594 C 515.550781 355.800781 515.269531 355.492188 515.007812 355.132812 L 514.375 354.316406 L 514.34375 354.273438 L 514.34375 354.222656 L 514.417969 354.082031 C 514.394531 353.960938 514.296875 353.878906 514.234375 353.785156 L 514.03125 353.488281 C 514.03125 353.472656 514.058594 353.394531 514.082031 353.382812 C 514.144531 353.351562 514.183594 353.382812 514.203125 353.398438 L 514.710938 354.097656 L 514.9375 354.074219 L 516.050781 355.492188 C 516.171875 355.628906 516.273438 355.777344 516.363281 355.9375 L 516.613281 356.398438 L 517.011719 357.117188 L 517.25 357.132812 L 517.304688 357.226562 L 517.175781 357.425781 L 517.867188 358.667969 L 517.765625 358.804688 C 517.761719 358.84375 517.761719 358.878906 517.765625 358.914062 L 518.59375 360.402344 C 518.636719 360.476562 518.59375 360.550781 518.519531 360.640625 C 518.519531 360.65625 518.519531 360.679688 518.519531 360.695312 L 518.761719 361.136719 L 519 361.15625 C 519.101562 361.335938 519.207031 361.527344 519.320312 361.730469 L 519.199219 361.917969 L 519.511719 362.488281 L 519.378906 362.6875 C 519.386719 362.707031 519.394531 362.722656 519.410156 362.734375 Z M 547.519531 422.226562 C 547.449219 422.257812 547.328125 422.285156 547.3125 422.269531 C 547.171875 422.058594 547.050781 421.835938 546.921875 421.617188 C 546.941406 421.585938 546.964844 421.5625 546.992188 421.539062 C 547.042969 421.488281 547.105469 421.46875 547.175781 421.484375 C 547.21875 421.5 547.21875 421.539062 547.234375 421.566406 L 547.554688 421.527344 C 547.648438 421.6875 547.738281 421.84375 547.832031 421.992188 C 547.746094 422.09375 547.636719 422.164062 547.511719 422.203125 Z M 555.910156 421.265625 C 555.910156 421.265625 555.910156 421.226562 555.910156 421.207031 L 556.054688 421.039062 C 556.074219 420.847656 555.839844 420.792969 555.882812 420.597656 L 556.042969 420.410156 L 554.621094 418.222656 L 554.476562 418.242188 L 554.652344 418.113281 L 554.972656 417.980469 L 555.210938 417.796875 L 555.527344 417.660156 L 555.777344 417.480469 L 556.089844 417.335938 L 557.746094 416.066406 L 557.863281 415.988281 L 558.078125 415.898438 L 558.195312 415.824219 L 559.832031 414.566406 L 559.929688 414.476562 L 560.074219 414.292969 C 560.414062 414 560.820312 413.742188 561.125 413.457031 L 561.285156 413.257812 L 561.523438 413.078125 L 561.75 412.816406 L 562.242188 412.441406 L 562.46875 412.179688 L 562.996094 411.785156 C 563.023438 411.679688 563.238281 411.523438 563.425781 411.367188 L 563.71875 411.015625 L 563.546875 411.929688 L 563.117188 412.027344 C 563.234375 412.101562 563.328125 412.164062 563.441406 412.238281 C 563.542969 412.476562 563.394531 412.679688 563.378906 412.90625 C 563.351562 413.101562 563.320312 413.300781 563.273438 413.496094 C 563.234375 413.722656 563.175781 413.945312 563.15625 414.171875 C 563.132812 414.402344 562.992188 414.601562 563.085938 414.839844 C 563.199219 414.914062 563.296875 414.972656 563.417969 415.046875 L 562.988281 415.148438 C 562.929688 415.476562 562.867188 415.8125 562.8125 416.148438 L 562.328125 416.246094 L 562.210938 416.917969 L 561.753906 417.011719 L 561.632812 417.6875 L 562.050781 417.976562 C 561.992188 418.3125 561.933594 418.648438 561.878906 418.972656 L 562.191406 419.167969 C 562.109375 420.28125 561.921875 421.375 561.636719 422.453125 L 561.296875 422.515625 C 561.09375 422.84375 561.257812 423.253906 561.007812 423.566406 L 560.625 423.636719 L 560.40625 424.992188 L 559.933594 425.09375 L 560.351562 425.359375 C 560.253906 425.984375 560.15625 426.605469 560.058594 427.21875 L 560.457031 427.480469 L 560.195312 429.179688 L 560.113281 429.199219 C 559.886719 429.113281 559.941406 428.851562 559.710938 428.769531 L 559.464844 428.820312 L 559.371094 428.75 L 559.574219 428.488281 L 559.09375 427.773438 L 558.769531 427.832031 L 558.527344 427.472656 L 558.710938 427.234375 L 558.394531 427.28125 L 557.820312 426.417969 C 557.820312 426.417969 557.820312 426.375 557.820312 426.355469 L 557.964844 426.183594 C 557.964844 426.035156 557.847656 425.96875 557.800781 425.847656 C 557.753906 425.730469 557.589844 425.644531 557.605469 425.480469 L 557.777344 425.28125 L 557.300781 424.5625 L 557.507812 424.300781 L 557.210938 423.851562 L 556.898438 423.902344 L 557.101562 423.636719 C 556.722656 423.066406 556.34375 422.492188 555.976562 421.925781 L 556.160156 421.683594 Z M 564.242188 409.476562 L 564.535156 409.171875 L 564.445312 409.644531 Z M 556.625 443.890625 L 556.828125 443.761719 L 556.828125 443.839844 Z M 565.457031 406.53125 L 565.007812 406.617188 L 564.566406 408.960938 L 564.320312 408.761719 L 564.472656 408.59375 L 564.488281 408.546875 L 564.085938 408.199219 L 564.019531 408.199219 L 563.773438 408.296875 C 563.730469 408.246094 563.679688 408.203125 563.621094 408.164062 C 563.546875 408.121094 563.574219 408.003906 563.410156 408.023438 L 563.191406 408.109375 L 563.015625 407.890625 L 562.71875 408 C 562.4375 407.652344 562.144531 407.316406 561.878906 406.949219 L 562.082031 406.722656 L 561.511719 405.96875 L 561.953125 405.761719 L 562.035156 405.722656 L 562.167969 405.640625 L 563.011719 405.246094 L 563.164062 405.15625 L 563.347656 405.066406 L 563.558594 404.949219 L 563.941406 404.769531 L 564.152344 404.648438 L 564.5625 404.457031 C 564.679688 404.382812 564.800781 404.316406 564.929688 404.261719 L 565.453125 403.949219 C 565.5625 403.886719 565.515625 403.894531 565.5625 403.859375 L 565.890625 403.660156 L 565.84375 403.605469 L 566.027344 403.496094 L 565.957031 403.421875 L 566.085938 403.351562 C 565.875 404.398438 565.667969 405.457031 565.457031 406.519531 Z M 575.351562 414.179688 C 575.15625 414.226562 574.964844 414.214844 574.773438 414.144531 C 574.664062 414.109375 574.511719 414.023438 574.511719 413.988281 C 574.558594 413.601562 574.628906 413.21875 574.707031 412.839844 C 574.707031 412.820312 574.804688 412.8125 574.867188 412.8125 C 574.976562 412.808594 575.0625 412.851562 575.128906 412.9375 C 575.160156 412.996094 575.128906 413.046875 575.109375 413.089844 L 575.507812 413.355469 Z M 592.023438 373.289062 C 591.789062 373.191406 591.59375 373.046875 591.4375 372.851562 L 592.074219 372.769531 L 592.601562 373.195312 Z M 592.023438 373.289062 " fill-opacity="1" fill-rule="nonzero"/></svg>