<svg xmlns="http://www.w3.org/2000/svg" xmlns:xlink="http://www.w3.org/1999/xlink" width="800" zoomAndPan="magnify" viewBox="0 0 600 458.999989" height="612" preserveAspectRatio="xMidYMid meet" version="1.0"><path fill="#000000" d="M 276.207031 261.578125 C 169.515625 260.863281 150.460938 248.160156 149.65625 90.792969 C 149.636719 86.824219 146.398438 83.597656 142.445312 83.597656 C 138.492188 83.597656 135.261719 86.828125 135.242188 90.792969 C 134.429688 248.160156 115.378906 260.871094 8.691406 261.578125 C 3.894531 261.605469 0 265.503906 0 270.257812 C 0 275.007812 3.894531 278.902344 8.683594 278.933594 C 115.371094 279.648438 134.429688 292.351562 135.234375 449.71875 C 135.253906 453.691406 138.492188 456.917969 142.441406 456.917969 C 146.394531 456.917969 149.632812 453.691406 149.652344 449.722656 C 150.457031 292.355469 169.515625 279.648438 276.203125 278.941406 C 280.992188 278.910156 284.886719 275.011719 284.886719 270.261719 C 284.886719 265.507812 280.992188 261.605469 276.207031 261.578125 Z M 276.207031 261.578125 " fill-opacity="1" fill-rule="nonzero"/><path fill="#000000" d="M 595 131.195312 C 517.347656 130.679688 502.082031 120.550781 501.492188 5.464844 C 501.480469 3.300781 499.726562 1.546875 497.578125 1.546875 C 495.429688 1.546875 493.671875 3.300781 493.664062 5.464844 C 493.070312 120.550781 477.800781 130.679688 400.15625 131.195312 C 397.398438 131.214844 395.152344 133.445312 395.152344 136.175781 C 395.152344 138.910156 397.398438 141.144531 400.15625 141.164062 C 477.804688 141.679688 493.070312 151.808594 493.664062 266.894531 C 493.671875 269.050781 495.433594 270.808594 497.578125 270.808594 C 499.722656 270.808594 501.480469 269.050781 501.492188 266.894531 C 502.082031 151.804688 517.351562 141.679688 595 141.164062 C 597.757812 141.144531 600 138.910156 600 136.175781 C 600 133.445312 597.757812 131.214844 595 131.195312 Z M 595 131.195312 " fill-opacity="1" fill-rule="nonzero"/><path fill="#000000" d="M 393.285156 338.808594 C 388.390625 353.136719 380.054688 363.867188 369.214844 369.675781 C 380.054688 375.488281 388.390625 386.210938 393.285156 400.546875 C 398.179688 386.210938 406.515625 375.488281 417.355469 369.675781 C 406.515625 363.867188 398.179688 353.136719 393.285156 338.808594 Z M 393.285156 338.808594 " fill-opacity="1" fill-rule="nonzero"/><path fill="#000000" d="M 251.339844 109.550781 C 256.234375 95.222656 264.570312 84.492188 275.410156 78.683594 C 264.570312 72.871094 256.234375 62.148438 251.339844 47.816406 C 246.449219 62.148438 238.113281 72.875 227.273438 78.683594 C 238.117188 84.492188 246.453125 95.222656 251.339844 109.550781 Z M 251.339844 109.550781 " fill-opacity="1" fill-rule="nonzero"/></svg>