<svg xmlns="http://www.w3.org/2000/svg" xmlns:xlink="http://www.w3.org/1999/xlink" width="800" zoomAndPan="magnify" viewBox="0 0 600 458.999989" height="612" preserveAspectRatio="xMidYMid meet" version="1.0"><path fill="#000000" d="M 283.097656 188.015625 L 283.097656 170.914062 C 283.097656 142.234375 296.777344 114.609375 319.667969 97.246094 L 319.929688 96.984375 C 328.21875 90.667969 333.347656 81.066406 334.003906 70.671875 C 334.664062 60.542969 331.113281 51.070312 324.007812 43.96875 C 323.613281 43.574219 323.085938 43.179688 322.691406 42.785156 C 308.089844 29.496094 286.121094 31.207031 272.570312 45.285156 C 261.125 57.386719 255.734375 72.382812 254.945312 88.957031 C 254.550781 98.167969 246.65625 105.402344 237.449219 104.875 C 228.238281 104.480469 221.136719 96.589844 221.53125 87.378906 C 222.714844 62.648438 231.265625 40.285156 248.367188 22.261719 C 260.863281 9.109375 277.703125 1.214844 295.855469 0.425781 C 314.140625 -0.496094 331.769531 5.820312 345.320312 18.054688 C 346.109375 18.84375 346.898438 19.5 347.6875 20.289062 C 361.632812 34.101562 368.867188 53.441406 367.550781 73.039062 C 366.234375 93.167969 356.238281 111.585938 340.320312 123.820312 L 340.058594 124.082031 C 325.453125 135.132812 316.773438 152.761719 316.773438 171.046875 L 316.773438 188.148438 L 567.507812 337.0625 C 594.082031 352.847656 606.707031 385.472656 596.578125 414.808594 C 588.554688 437.699219 569.347656 451.378906 546.460938 457.429688 C 545.011719 457.824219 543.566406 457.957031 542.117188 457.957031 L 58.011719 457.957031 C 56.566406 457.957031 55.121094 457.824219 53.671875 457.429688 C 30.78125 451.378906 11.445312 437.699219 3.550781 414.808594 C -6.710938 385.472656 6.050781 352.847656 32.625 337.0625 Z M 60.117188 424.410156 L 539.617188 424.410156 C 550.667969 421.121094 560.796875 415.070312 564.746094 403.625 C 569.742188 389.289062 563.164062 373.371094 550.140625 365.738281 L 299.933594 217.089844 L 49.460938 365.738281 C 36.570312 373.371094 29.863281 389.289062 34.859375 403.625 C 38.9375 415.203125 49.066406 421.121094 60.117188 424.410156 Z M 60.117188 424.410156 " fill-opacity="1" fill-rule="evenodd"/></svg>