<svg xmlns="http://www.w3.org/2000/svg" xmlns:xlink="http://www.w3.org/1999/xlink" width="800" zoomAndPan="magnify" viewBox="0 0 600 599.999999" height="800" preserveAspectRatio="xMidYMid meet" version="1.0"><path fill="#000000" d="M 148.058594 225.59375 L 235.847656 225.59375 C 240.839844 225.59375 244.902344 229.628906 244.902344 234.648438 L 244.902344 276.722656 C 244.902344 304.835938 221.882812 327.816406 193.773438 327.816406 L 190.136719 327.816406 C 162.027344 327.816406 139.046875 304.835938 139.046875 276.722656 L 139.046875 234.648438 C 139.035156 229.628906 143.070312 225.59375 148.058594 225.59375 Z M 226.785156 243.699219 L 157.113281 243.699219 L 157.113281 276.722656 C 157.113281 294.867188 171.996094 309.710938 190.136719 309.710938 L 193.773438 309.710938 C 211.914062 309.710938 226.796875 294.867188 226.796875 276.722656 L 226.796875 243.699219 Z M 544.253906 504.503906 C 570.246094 504.503906 583.992188 472.757812 565.191406 453.957031 C 559.796875 448.601562 552.402344 445.265625 544.253906 445.265625 C 462.554688 445.265625 380.804688 445.265625 299.070312 445.265625 C 273.078125 445.265625 259.332031 476.972656 278.171875 495.777344 C 283.527344 501.167969 290.921875 504.503906 299.070312 504.503906 Z M 271.175781 513.554688 C 249.179688 497.613281 244.707031 466.640625 261.722656 445.265625 L 111.878906 445.265625 C 106.863281 445.265625 102.828125 441.195312 102.828125 436.214844 L 102.828125 268.046875 L 38.238281 285.347656 C 33.402344 286.628906 28.449219 283.773438 27.167969 278.933594 L 0.375 178.863281 C -0.984375 173.882812 1.992188 168.890625 7.34375 167.652344 L 151.875 129.789062 L 215.367188 113.261719 L 215.367188 90.078125 C 215.367188 84.621094 220.023438 80.328125 225.890625 81.128906 C 258.996094 85.125 278.933594 41.46875 248.910156 23.46875 C 228.089844 11.003906 201.179688 26.625 202.359375 51.402344 C 202.578125 56.378906 198.761719 60.609375 193.785156 60.851562 C 188.792969 61.074219 184.589844 57.21875 184.332031 52.242188 C 182.457031 13.5 224.691406 -12.089844 258.195312 8.003906 C 301.371094 33.878906 280.226562 96.308594 233.484375 99.308594 L 233.484375 113.238281 L 294.476562 128.882812 C 294.699219 128.921875 294.878906 128.960938 295.097656 129.027344 L 299.09375 130.085938 L 367.785156 112.203125 L 367.785156 89.015625 C 367.785156 83.585938 372.476562 79.304688 378.335938 80.109375 C 411.402344 84.066406 431.378906 40.449219 401.351562 22.449219 C 380.496094 9.945312 353.585938 25.566406 354.800781 50.378906 C 355.023438 55.359375 351.167969 59.574219 346.191406 59.792969 C 341.199219 60.050781 336.996094 56.199219 336.761719 51.21875 C 334.886719 12.441406 377.121094 -13.113281 410.625 6.984375 C 453.761719 32.820312 432.660156 95.25 385.886719 98.289062 L 385.886719 112.253906 L 593.316406 167.78125 C 598.152344 169.058594 601.007812 174.011719 599.726562 178.847656 L 572.933594 278.921875 C 571.617188 283.757812 566.664062 286.617188 561.867188 285.335938 L 497.277344 268.035156 L 497.277344 349.808594 L 544.265625 349.808594 C 570.542969 349.808594 591.996094 371.289062 591.996094 397.539062 C 591.996094 413.261719 584.300781 427.410156 572.160156 436.214844 C 598.589844 455.351562 598.550781 494.417969 572.160156 513.554688 C 595.953125 530.742188 598.875 565.023438 577.992188 585.917969 C 569.339844 594.570312 557.429688 599.921875 544.265625 599.921875 L 299.070312 599.921875 C 272.792969 599.921875 251.339844 578.484375 251.339844 552.195312 C 251.351562 536.507812 259.046875 522.324219 271.175781 513.554688 Z M 544.253906 522.609375 L 299.070312 522.609375 C 273.078125 522.609375 259.332031 554.316406 278.171875 573.117188 C 283.527344 578.46875 290.921875 581.804688 299.070312 581.804688 L 544.253906 581.804688 C 570.246094 581.804688 583.992188 550.097656 565.191406 531.296875 C 559.796875 525.90625 552.402344 522.609375 544.253906 522.609375 Z M 299.070312 349.824219 L 325.566406 349.824219 L 325.566406 256.242188 C 325.566406 250.34375 331.175781 245.972656 336.96875 247.511719 L 404.199219 265.511719 L 426.335938 182.933594 L 297.128906 148.292969 C 263.003906 202.359375 183.53125 202.617188 149.742188 148.992188 L 20.171875 182.933594 L 42.308594 265.511719 L 109.058594 247.667969 C 115.371094 245.765625 120.929688 250.34375 120.929688 256.242188 L 120.929688 427.164062 L 261.722656 427.164062 C 236.832031 395.859375 259.527344 349.824219 299.070312 349.824219 Z M 343.679688 349.824219 L 479.160156 349.824219 L 479.160156 256.242188 C 479.160156 250.34375 484.769531 245.972656 490.566406 247.511719 L 557.792969 265.511719 L 579.929688 182.933594 L 450.722656 148.292969 C 446.40625 155.109375 441.234375 161.261719 435.296875 166.578125 L 439.773438 167.792969 C 444.570312 169.074219 447.425781 174.027344 446.148438 178.863281 L 419.351562 278.933594 C 418.035156 283.773438 413.082031 286.628906 408.285156 285.347656 L 343.695312 268.046875 L 343.695312 349.824219 Z M 544.253906 367.925781 L 299.070312 367.925781 C 273.078125 367.925781 259.332031 399.632812 278.171875 418.472656 C 283.527344 423.828125 290.921875 427.164062 299.070312 427.164062 L 544.253906 427.164062 C 570.246094 427.164062 583.992188 395.457031 565.191406 376.65625 C 559.796875 371.261719 552.402344 367.925781 544.253906 367.925781 Z M 168.363281 144.179688 C 195.515625 180.027344 251.015625 179.988281 278.546875 143.40625 L 224.445312 129.515625 Z M 334.371094 139.566406 L 413.171875 160.679688 C 420.582031 156.128906 426.996094 150.273438 432.234375 143.300781 L 376.773438 128.496094 Z M 334.371094 139.566406 " fill-opacity="1" fill-rule="nonzero"/></svg>